<svg xmlns="http://www.w3.org/2000/svg" viewBox="0 0 250 56.67"><g id="Layer_2" data-name="Layer 2"><g id="Layer_1-2" data-name="Layer 1"><path d="M125.13,23.76a7.1,7.1,0,0,0,1.44,2.3,13,13,0,0,0,1.81,1.36v.41h.81a1.13,1.13,0,0,1,.82.2c.08.07.16.19.24.2.26,0,.52,0,.78,0,.7.15,1.35-.26,2-.21a6,6,0,0,0,2-.41,2.23,2.23,0,0,0,1.47-1.11v-4.3l-.6-.49h-1.53a.73.73,0,0,1,0-1.18h7V21.7H139.9l-.5.5v5.32A17.05,17.05,0,0,1,136,28.89c-.09,0-.17.17-.24.15-.45-.11-.82.21-1.24.21a20.65,20.65,0,0,1-2.25.22c-.74-.07-1.49,0-2.23,0v-.41h-1.63v-.41h-1c-.49.11-.86-.21-1.24-.41a7.69,7.69,0,0,1-2.21-1.62l.19-.1-.17-.22.18-.19-1.06-.89V24.6l-.33-.06-.08-.78h-.56v-.2l.32-.41h-.53l0-1h-.38l-.21-1.34a5.53,5.53,0,0,0-.15-1.25,1.89,1.89,0,0,1,.1-1.55.68.68,0,0,0,.05-.38,7.06,7.06,0,0,1,1.28-3.93A9,9,0,0,1,126.77,10a4.59,4.59,0,0,1,1.81-.51c.26,0,.52,0,.78,0,.08,0,.16-.13.24-.2s.17-.19.25-.19c.6,0,1.19,0,1.79,0v.42l.81,0V9.12h.41v.37l.54.06.13.36.27,0,.27.05,0,.28c-.05,0-.07.07-.1.07h-.69c-.77,0-1.55,0-2.33,0a5.24,5.24,0,0,0-3,.93,8.67,8.67,0,0,0-3.41,4.63,12.2,12.2,0,0,0-.26,1.51,4.83,4.83,0,0,0-.2,1.64q.09.61.21,1.23c.07.38-.19.81.19,1.14-.12.53.26,1,.21,1.53v.81Z" style="fill:#a2253a"/><path d="M182.07,16.85v-.61l.37.21.07-.79.37-.07V14.41A5,5,0,0,1,184,12.35c.19-.24.44-.42.64-.65a7.67,7.67,0,0,1,3.64-2.23,4.73,4.73,0,0,1,1.89-.35h2.44a10.24,10.24,0,0,1,4.77,1.46l.35-1h.78c-.11,1,.34,2,.2,3,0,.86,0,1.71,0,2.57,0,0,0,0-.13.13l-.35-.47h-.3a.92.92,0,0,1-.4-.81V13l-.36.19-.1-.6-.36.21a7.3,7.3,0,0,1-.66-.57,6.57,6.57,0,0,0-2.43-1.67c-.07,0-.11-.13-.16-.2V9.93h-3c-.09,0-.18.13-.26.2s-.11.19-.16.19a4.36,4.36,0,0,0-2.56,1.19A7.87,7.87,0,0,0,185,15.66a7.87,7.87,0,0,0-.27,1.6,11,11,0,0,0,0,1.52,11.79,11.79,0,0,0,.85,3.7c.17.43.38.86.57,1.28l0,1.11.25-.28.33.19c.39.35.8.69,1.16,1.07a5.16,5.16,0,0,0,2,1.34,1.92,1.92,0,0,1,.35.23v.41c1,0,2,0,3,0,.09,0,.17-.12.26-.19s.15-.18.24-.2a3.62,3.62,0,0,1,.57,0v.32l1.8.33-.58.26v.31a3.82,3.82,0,0,0-.82.22,4,4,0,0,1-2.07.4.74.74,0,0,0-.66.16.49.49,0,0,1-.47,0c-.6-.34-1.24-.13-1.86-.2a3.72,3.72,0,0,1-.62-.2v-.41h-1.22a5.21,5.21,0,0,1-2.12-1,6,6,0,0,1-2-2,14.62,14.62,0,0,1-1.39-3,4.2,4.2,0,0,1-.19-1.35Z" style="fill:#a1253a"/><path d="M112.32,28c-.42.2-.7.64-1.23.61l-1,0v.38a1.34,1.34,0,0,1-.18.07,6.38,6.38,0,0,1-2.08.33,4.49,4.49,0,0,1-1.56-.4,6,6,0,0,1-2.87-3.16,4.15,4.15,0,0,1-.21-1.73c0-.58-.24-1.2.19-1.74a3.52,3.52,0,0,1,.61-2.08,3.4,3.4,0,0,1,1.22-1.46H106l.24-.81h.61v-.41a2,2,0,0,1,1.63-.4h2a2.4,2.4,0,0,1,1.59.28V11.61l-.71-.64-.88-.22v-.68l.41-.34c.08-.07.16-.18.25-.19a6.57,6.57,0,0,1,.77,0,5.15,5.15,0,0,0,1.78-.14l.46.23V26.86a.16.16,0,0,0,0,.09l.06.07h.31c.1,0,.25-.05.3,0a1.72,1.72,0,0,0,1.45.4c0,.54-.11.88-.51,1a7.53,7.53,0,0,1-1,.21l-1,0v.38h-.55l-.64-.51-.11-.82Zm-7.12-5.89c0,.54,0,1.09,0,1.62h.38a2.26,2.26,0,0,0,.34,1.28c1.1,2,1.12,2.2,2.61,2.83a1.47,1.47,0,0,0,.94.14,5.15,5.15,0,0,0,2.21-1h.41V20.26a7.71,7.71,0,0,0-.58-1,3.35,3.35,0,0,0-3.93-.62,4.1,4.1,0,0,0-2,2.71h-.4Z" style="fill:#a32339"/><path d="M60.46,27.63v-.21l.4.52v-.69q0-7.69,0-15.4a5.86,5.86,0,0,1-.11-1.1h-.51c-.73-.1-1.52.21-2.22-.22V9.61l.29-.29c.38.07.83-.14,1.26.19.13.1.39,0,.6,0H63.3v.41c.59,0,1.12,0,1.63,0V9.53h.73l.27.58-.19.64H63.3v14c0,.5,0,1,0,1.52s.14,1,.23,1.53c1.18,0,2.39,0,3.59,0a10.73,10.73,0,0,0,3.54-.21,10.07,10.07,0,0,0,3.07-4.44h.94a5.9,5.9,0,0,1-.4,1.95c-.14.68-.28,1.37-.45,2s-.37,1.27-.54,1.87H57.84v-.92l.28-.28h2.13l.07.39.14,0Z" style="fill:#a5233a"/><path d="M222.14,27.83h1v.31l.41.19v.52c0,.33-.3.19-.46.19h-5V27.83h1.37c.35,0,.8.17,1-.41h-.4a3.64,3.64,0,0,1-.19-.72,6.76,6.76,0,0,1,0-.9V23.07c0-.57,0-1.15,0-1.72s-.16-1-.25-1.58l-.5-.67a4.69,4.69,0,0,0-2.29-.62c-.2.07-.52-.19-.61.2a3.39,3.39,0,0,1-.34.23,2.84,2.84,0,0,0-1.26,1.26,2.54,2.54,0,0,1-.23.34c-.34,0-.2.3-.2.46q0,3.36,0,6.7s.06.11.1.16H216v1l-.23.23h-4.93l-.24-.25v-.92h1.56V20.71c-.22-.94-1.12-1.14-1.62-1.77.19-.66.91-.66,1.34-1a2.79,2.79,0,0,1,1.53-.68h.41a2.48,2.48,0,0,0,.28,1.61h.75a2,2,0,0,1,.44-.39c.24-.09.13-.27.15-.41h.75l.14-.41H217l.26-.4h2.24c.35,0,.7-.05.82.4-.11.46.49.46.53.82.36-.1.24.63.69.4a2.73,2.73,0,0,1,.41,1.56c0,2.19,0,4.38,0,6.58h-.3l-.27.54c.09.09.17.23.28.26A2.08,2.08,0,0,0,222.14,27.83Z" style="fill:#a5233a"/><path d="M227.51,39.42h-.65v-.76a8.9,8.9,0,0,1,2.78-.44V49.88l.5.5h.61l.42.41h1.3V45.73L231.3,45v-.35l2.55-1.12.31.31a9.45,9.45,0,0,0-.22,3.23c0,1.09,0,2.17,0,3.18l.31.6h1.09v.76h-4.19l-.1-.54-2.31.79c-.5-.08-.49-.44-.53-.79-.42.2-.83.39-1.25.57a4,4,0,0,1-2.35.17,2.91,2.91,0,0,1-1.85-1.33,3.37,3.37,0,0,1-.63-2.08,4.72,4.72,0,0,1,.62-2.8,4,4,0,0,1,2.58-1.91,2.7,2.7,0,0,1,1.88,0,2.17,2.17,0,0,0,.81,0V39.87l-.6-.34Zm-1.7,11.39a4,4,0,0,0,.68,0,6,6,0,0,0,.89-.26l.65-.64V45.43c-1.22-1.49-3.13-1.59-4.27.81v2.14C224.25,49.37,224.64,50.36,225.81,50.81Z" style="fill:#232222"/><path d="M82.85,51.59v-.75H84l.64-.33c0-3.34,0-6.7,0-10a6,6,0,0,0-.19-1l-1.61-.3v-.68h9.72l1,3.2-.65.28c-.62-.7-1.19-1.35-1.77-2a2.36,2.36,0,0,0-1.63-.71c-1-.08-2,0-3,0v5.1c.91-.1,1.84.18,2.78-.25l.49-1.58h.74V46.9h-.71c-.22-.47-.16-1.16-.79-1.55l-2.54-.29c.09,1.72-.19,3.35.27,5.09l.69.52a8.39,8.39,0,0,0,2.33.15,3.41,3.41,0,0,0,3-1.47c.28-.34.5-.73.78-1.15h.64s.06.08.07.14c.15.59-.25,1-.4,1.56s-.38,1.12-.57,1.69Z" style="fill:#232222"/><path d="M185.75,46.92c-.09-.86.24-1.74-.51-2.4-1.26,0-1.26,0-1.92.47a.32.32,0,0,0,0,.09v1.17l-.65.47h-.7l-.29-.65.31-.93a3.84,3.84,0,0,1,2-1.38,3.42,3.42,0,0,1,2.5-.1l.9,1.08v5.6l.56.33.79-.57.12.68h1.11l.28-.27c0-2.93,0-5.88,0-8.82A8.48,8.48,0,0,0,190,40.4l-1.16-.48v-.45a3.94,3.94,0,0,1,.73-.44,4.36,4.36,0,0,0,1.36-.64c.28-.23.55-.16.94-.2,0,.6,0,1.2,0,1.8s.15,1.12-.19,1.65c-.09.15,0,.4,0,.6,0,2.48,0,4.95,0,7.42a7.18,7.18,0,0,0,.18,1.15h1.23l.25.67c-.08.08-.1.12-.13.12l-4.26,0a1.92,1.92,0,0,1-.48-.16l-.29.34h-1.43l-.9-1c-.83,1-2,1.05-3.28,1l-.66-.89a7.12,7.12,0,0,0,0-.8,1.51,1.51,0,0,1,.65-1.45,4,4,0,0,1,1.22-.74A12.27,12.27,0,0,0,185.75,46.92Zm-.05,3V47.78c-.41.21-.79.42-1.18.59a2.14,2.14,0,0,0-1,1.13c-.17.37.1.74.27,1.09C184.69,50.94,184.69,50.94,185.7,49.93Z" style="fill:#232222"/><path d="M210.38,50l.66.91a7,7,0,0,1,.85-.24,5.48,5.48,0,0,1,.81,0,.51.51,0,0,1-.29.8,3.4,3.4,0,0,1-1.56.42c-.27,0-.54,0-.82,0-.25-.19-.53-.36-.77-.58a1.59,1.59,0,0,1-.55-1.29c0-1.43,0-2.85,0-4.27a5.53,5.53,0,0,1,.12-.75h-1.32l0-.57A6.87,6.87,0,0,0,210,41.56l.54.39c-.09.56.18,1.14-.38,1.72h5.22V49.5l1,1.27a2,2,0,0,0,1.64-.37,1.43,1.43,0,0,0,.8-1.34V44.92l-1.26-.56.23-.65h2.36a.64.64,0,0,1,.26.89,1.29,1.29,0,0,0-.16.86c0,1.46,0,2.92,0,4.38l.43.73c.63-.3,1-.23,1,.6-.88.1-1.63.72-2.48.66-.5-.24-.3-.68-.4-1.1a3.32,3.32,0,0,1-3.06,1.09,1.07,1.07,0,0,1-.62-.2A3.49,3.49,0,0,1,214,49.68c-.37-1.62-.08-3.26-.22-4.89l-.7-.34-.23.46h-2.46Z" style="fill:#232222"/><path d="M173.73,46v4.75h1.4v.8h-4.39l-.1-.35c-.89-.06-1.62.73-2.45.59-.51-.23-.28-.68-.39-1a3.82,3.82,0,0,1-2.67,1.06,1.91,1.91,0,0,1-1.73-1,3.94,3.94,0,0,1-.66-2.17c0-1.21,0-2.44,0-3.74l-.67-.48-.34-.06V43.8s0-.07.06-.07h2.3c.3.16.28.43.28.7v5.22a2,2,0,0,1,.39.52,1.06,1.06,0,0,0,1.09.63,1.87,1.87,0,0,0,2-1.82c0-1.15,0-2.3,0-3.45a3.62,3.62,0,0,0-.22-.77l-1-.33v-.7h2.56l.24.24a6.51,6.51,0,0,0-.16,1.05c0,1.69,0,3.39,0,5.08l.5.5c.63-.32.63-.32,1,.31l1.34-.14a16.38,16.38,0,0,0-.17-5.17c-.36-.18-.79-.26-1.07-.73a8,8,0,0,1,2.45-1.34l.25.25v1a4,4,0,0,1,1.83-1.34h.95l.49.53v.81l-.58.49a4.66,4.66,0,0,1-.91,0c-.88-.15-1-.1-1.49.65A.16.16,0,0,1,173.73,46Z" style="fill:#232222"/><path d="M97.06,18.27c0,.28-.21.18-.36.21s-.41.1-.64.16a8.3,8.3,0,0,1,.38,1.3,8.72,8.72,0,0,0,.37,1.26,33.1,33.1,0,0,0,1.06,3.38,1.33,1.33,0,0,1,0,.4c.05.31-.16.68.2.92l-.24.25h.85v-.56c0-.17-.06-.36,0-.5.39-.86.8-1.7,1.21-2.55.3,0,.17-.25.2-.4.31,0,.18-.26.21-.41a7.9,7.9,0,0,1,.79-2.27v-.65c-.22-.48-.62-.27-1-.37V17.27c.28.08.61-.24.78.19s.5,0,.58.33l.14.34.15-.44h1.11l.14.41.61-.13-.5-.18.41-.33c.17-.43.5-.11.78-.19v1.18a1.7,1.7,0,0,0-1.28.43,7.39,7.39,0,0,0-.74,1.11c-.36.6-.52,1.27-.83,1.89s-.58,1.17-.83,1.78c-.32.77-.71,1.53-1,2.31-.19.43-.36.86-.55,1.29,0,.07-.13.11-.2.16l-.4.06.2.35h-.41v1a13.67,13.67,0,0,1-1.14,2.67,1.51,1.51,0,0,0-.08.38h-.4v.61l-.41-.21V31.08c0-.52.4-.91.52-1.41a1.31,1.31,0,0,0,0-.83c-.31-.82-.61-1.65-.86-2.49A17,17,0,0,0,95,23.86c-.07-.14,0-.33,0-.5A5.49,5.49,0,0,0,95,22.14h-.35a1.67,1.67,0,0,1-.41-1.22V20.1h-.4a2.91,2.91,0,0,0-1.12-1.62h-1c-.43-.22-.38-.58-.33-.94a.66.66,0,0,1,1-.2,1.41,1.41,0,0,0,.65.12c.06.07.11.19.16.19.85,0,1.69,0,2.53,0,.06,0,.11-.12.16-.19A1.36,1.36,0,0,1,97,17.3s0,.1.06.16Z" style="fill:#a2253a"/><path d="M204.45,38.63l.72-.4.25.23c.1,1.12.19,2.23.29,3.38h-.58c-.91-2-.83-1.84-2.42-2.82H201.5c-.32.35-.88.3-1.14.8a2.94,2.94,0,0,0-.37,1.9,3.6,3.6,0,0,0,2.66,2,10.56,10.56,0,0,1,2.42,1,3.08,3.08,0,0,1,1.2,2.09,12.42,12.42,0,0,1,0,1.93,3.36,3.36,0,0,1-3.21,3.1h-1.22a3.05,3.05,0,0,1-2.05-.69,2.3,2.3,0,0,0-.49-.26l-.83.45c-.39-1.39.22-2.64.07-3.95h.8a8.07,8.07,0,0,0,.21,1.5,3.3,3.3,0,0,0,3,2.12,2.35,2.35,0,0,0,2.24-1.6,2.45,2.45,0,0,0-.58-2.41,4.39,4.39,0,0,0-2.22-1.24,9.46,9.46,0,0,1-2.5-1.31,4.36,4.36,0,0,1-.86-1.21c-.08-.62-.21-1.19-.23-1.77a2.6,2.6,0,0,1,.71-1.84A3.18,3.18,0,0,1,201,38.34s.05-.07.07-.07A5.91,5.91,0,0,1,204.45,38.63Z" style="fill:#232222"/><path d="M207.29,17.26a3.08,3.08,0,0,1,2.44,2.44,3.62,3.62,0,0,0,0,.57c0,.09.13.16.19.24.31,0,.18.25.21.41h-.41v.4h-1.42V21c-.37-.06-.68-.11-.93.14-.25-.32-.6-.14-.9-.18v-.21l1-.2c.37-.23.18-.53.17-.81h-.37a1.86,1.86,0,0,0-.86-1.35c-.49-.43-1.11-.25-1.6-.28A5.11,5.11,0,0,0,203,19.7h-.51l-.24.46c.07.24.13.48.2.71l.36.13-.05.28-.37.12v.94c-.24.13-.53.24-.35.6l.35-.19a4.85,4.85,0,0,1,.19.92,3.6,3.6,0,0,0,.2.92A4.28,4.28,0,0,0,205,27.22l.24.13.08.07a12.19,12.19,0,0,0,1.6,0,9.41,9.41,0,0,0,1.35-.39h.61v-.61l.2-.21h.61v-.61h.41v.82c.1.47-.5.59-.5,1A5.09,5.09,0,0,1,207,29.18a9.15,9.15,0,0,1-1.89.07,5.51,5.51,0,0,1-1.84-.44s-.05-.11-.08-.17v-.36l-.56-.09-.12-.36H202l.47-.41h-.87l0-1-.38.22-.13-.58.12-.17-.37-.13-.08-.75h-.36V22.14c-.13-.74.3-1.36.41-2,.1,0,.26,0,.3,0,.34-.52.89-.93.92-1.62.13,0,.29,0,.38,0,.34-.2.91-.18.84-.81a1,1,0,0,1,1-.4Z" style="fill:#a2253a"/><path d="M87.3,17.26a4.51,4.51,0,0,1,2.94,1.22,6,6,0,0,1,1.83,2.79,8.27,8.27,0,0,1,.11,1.07v2h-.41V25.8c-.46-.11-.44.51-.81.51V27h-.6l-1,.91v.51c0,.3-.25.17-.4.2a.17.17,0,0,0,0-.1.14.14,0,0,0-.06-.07l-1,.27-.3.31H84.45v-.38l-.76-.05-.13-.38H83l.18-.32a1.61,1.61,0,0,1-.47-.29c-.2-.27-.47-.19-.73-.21.11-.38-.26-.49-.45-.8v-.79l-.32-.07V24.2l1-.1-.62-.48V22.54l-.37,0v1.06l-.27.27-.56-.15V23h.4V21.12c.37.29.78.2,1.23.19l0-.67-.48-.36,1.25-1.09-.14-.31h.61v-.81h.21c.34,0,.7,0,.81-.41a1.71,1.71,0,0,1,1.42-.4Zm.81,1.62.2-.4H87.5a1.43,1.43,0,0,1-.37-.08,1.73,1.73,0,0,0-1.7-.11,3.06,3.06,0,0,0-1.36.88c-.16.23-.29.48-.43.73l-.29-.17-.48.63-.42-.26v1.52l.38.31v2.44c0,.55,0,1.09,0,1.63h.38v.78l1,1h.45l.79.41c.17,0,.43,0,.69,0,0,0,.09.12.14.19l-.31.15H87.3l-.2-.35h.4l.61.16v-.57h.41v-.41h.81V26a8.27,8.27,0,0,0,.41-3.16c0-.44,0-.88,0-1.31l0-1h-.39V20.1h.78v-.79h-.66l-.35.45-.38-.47A.5.5,0,0,0,88.11,18.88ZM90.35,20V20h.2V20Z" style="fill:#a82339"/><path d="M122.63,56.67l-.19-.76h1.14l.33-.32V46l-1.24-1c.55-.75.79-.88,2.64-1.49v1.1a2,2,0,0,0,.49-.24,3,3,0,0,1,1.45-.68,1.46,1.46,0,0,1,1.46,0c1.45.09,2.06,1.11,2.43,2.29a7.26,7.26,0,0,1,.09,1.69,3.58,3.58,0,0,1-.58,2.2,3.65,3.65,0,0,1-3.23,2,2.85,2.85,0,0,1-1.73-.2l-.1.05s0,0,0,.08c0,1.28,0,2.56,0,3.84l.3.3h.9v.78Zm4-12-1,.84v4.8A2.9,2.9,0,0,0,128,51a2.26,2.26,0,0,0,1.51-1.83,5.58,5.58,0,0,0,.09-1.58,3.87,3.87,0,0,0-.7-2.14c-.24-.32-.64-.4-.79-.75Z" style="fill:#232222"/><path d="M233.32,24.58a8.36,8.36,0,0,0,1.22,2V27H235v.55l-.41.14c.49-.09.89.51,1.44.24-.21-.21-.38-.38,0-.53h3l.14-.39h.47l.28.6a2.9,2.9,0,0,1-1.6,1.28,4.27,4.27,0,0,1-.64.14h-2.85l-.76-.81h-1.07a2.83,2.83,0,0,1-1.22-1.63V25.46l-.38-.13-.06-.75h-.37c0-.8,0-1.6,0-2.4a7.83,7.83,0,0,1,.32-1.67s.06,0,.1,0h.31l.18-.39.31-.07,0-.56a6.93,6.93,0,0,0,1.17-1.23c.13-.23.73-.11.45-.6.29-.48.77-.4,1.22-.4h3.25c.05.71.05.71.78.89l.11.33h.54c.53.23.54.82.8,1.23a1.37,1.37,0,0,1,.2.62,10,10,0,0,1,0,1.09l-.3.31h-7.22c-.06,0-.17.05-.17.07q0,1.26,0,2.52a1.11,1.11,0,0,0,.07.26Zm2-6.51-1,0,.21.38-.41.4h-.31l-.18.39-.29.07-.08.79-.29-.24c-.1.4-.17.75.21,1h4.74s0,0,.07-.06v-.31c.06,0,.16,0,.16-.07a3.7,3.7,0,0,0,0-1.15h-.36l-.41-.81-.26-.82c-.61,0-1.2,0-1.78,0Z" style="fill:#a6233b"/><path d="M76.52,15.22a2.45,2.45,0,0,1-.19-.62c0-.58,0-1.15,0-1.59-.28-.85-.93-1-1.56-1.24-.27-.09-.48-.19-.48-.52s.22-.41.49-.51a15.83,15.83,0,0,0,3.17-1.62h.72c0,.05.09.11.09.16q0,2.54,0,5.07c0,.16.14.43-.19.46s-.2.31-.2.47c0,1.86,0,3.72,0,5.59q0,3,0,6.09c0,.16-.14.43.2.46l-.21.41h.41v.44h1.63v.78H75.91V28.7l.46-.15-.48-.21.43-.2v-.31a1.07,1.07,0,0,1,.2-.81c.28,0,.2-.22.2-.37,0-1.25,0-2.5,0-3.75q0-3.62,0-7.21C76.72,15.52,76.86,15.26,76.52,15.22Z" style="fill:#a42339"/><path d="M245.52,27.83h1.78V29h-6.19V27.87h1.64a2.08,2.08,0,0,0,.34-1.33c0-1.62,0-3.25,0-4.87a7.8,7.8,0,0,0-.28-1.31c0-.31-.42-.4-.55-.66v-.32l-.41-.19v-.71a5.4,5.4,0,0,1,2.24-1.22h.49l.32.4c.07.05.2.1.2.16,0,.4,0,.79,0,1.26a6.64,6.64,0,0,1,2.26-2,2.18,2.18,0,0,1,1.19-.26l.62.6v.4l.47.35c-.09.27-.17.5-.23.75,0,0,.11.09.16.14-.84.75-.87.79-1.62.39a4,4,0,0,0-1.55-.2l-1.1,1.23c-.39.09-.13.41-.2.61v6.1c0,.18.09.42-.25.42-.06,0-.11.12-.16.19l-.4.24L244,27.6l-.22.22-.2-.17-.8.59h1.72a.86.86,0,0,0,.79-.41Z" style="fill:#a2253a"/><path d="M146.07,27v.55l.73.46h1.47l0,1h-5.91l-.16-.29.56-.51,1-.05V21.46c0-1.11,0-1.16-.82-1.76v-.62l-.48.25a2.17,2.17,0,0,1,.24-.44c.21-.22.44-.41.65-.63,0,0,0-.13,0-.19h1.63v-.81l.51-.27.21.45.09-.09v1.44l.3.26a.44.44,0,0,0,.11-.09,3.75,3.75,0,0,1,2-1.7h1.83l.61.46V19l-.81.69a2.46,2.46,0,0,1-1.65-.31c-.43-.32-.83,0-1.15.2a4.8,4.8,0,0,0-.86.93h-.41c0,2.13,0,4.19,0,6.25C145.88,26.84,146,26.93,146.07,27Z" style="fill:#a5233a"/><path d="M227.22,15.22v2c.55,0,1.12,0,1.68,0h1.72c.09,0,.17.13.26.2v.35l-.36.12-.25.95H226v.42h.79c0,2.36,0,4.65,0,6.94a2,2,0,0,0,.31,1.18h.51v.43H230c.27.45-.27.31-.33.59h.4a1.55,1.55,0,0,1-1.43.61h-2a1.87,1.87,0,0,1-1.42-1l-.21-.2v-.2l.61-.73V20.65s-.08-.09-.13-.15l-.27.07c0,2.11,0,4.2,0,6.29a.16.16,0,0,1,0,.09l-.06.07h-.31V18.93c-.65-.11-1.31,0-2-.07-.25-.46.08-.72.37-.91A16.14,16.14,0,0,0,226,15.22Z" style="fill:#a6233b"/><path d="M148.89,51.61h-3.6v-.78h1v-5a4,4,0,0,0-.49-.51,4.69,4.69,0,0,0-.61-.36c.68-.88,1.65-1,2.55-1.58v1.16a2.71,2.71,0,0,0,1-.5,2.69,2.69,0,0,1,1.49-.55,2.65,2.65,0,0,1,2.1.8c.14.15.29.29.43.43a5,5,0,0,1,.28,2.32v3.73l1,.06.25.75h-3.91v-.74h.91a1.5,1.5,0,0,0,.08-.3V45.39l-.85-.64a2.08,2.08,0,0,0-2.57,1.31v4.75h.95Z" style="fill:#232222"/><path d="M95.05,51.59v-.75h1V48.2c0-.5,0-1,0-1.52s-.1-1.23-.82-1.47c-.09,0-.14-.14-.24-.25.45-.89,1.51-.88,2.19-1.48l.29.39v1a3.81,3.81,0,0,1,2-1.22,2.55,2.55,0,0,1,3.07,1.48,3.91,3.91,0,0,1,.23,1.33c0,1.45,0,2.9,0,4.38h.94l-.11.15.5.17,0,.19-.51.16.13.15h-3.43l-.43-.39a2.3,2.3,0,0,1,.53-.41c.23-.08.56.12.78-.24,0-1.58,0-3.16,0-4.74,0-.41-.31-.75-.91-1.13H99.08l-.91.45-.47.73v4.89l.82.06.23.75Z" style="fill:#232222"/><path d="M58,51.59v-.75h1.29l.3-.57V44.93H58.21c.07-.44-.19-.88.34-1.24h1.11c-.22-2.56.66-4.47,3.28-5.49h1.34c.93,0,1.14.19,1.49,1.27l-.74.77a1.53,1.53,0,0,1-1.1-.49,2.88,2.88,0,0,0-.63-.42,1.11,1.11,0,0,0-.57-.1,2.14,2.14,0,0,0-1.46,1.51c-.06.48-.16,1-.2,1.44s0,1,0,1.47h2.09l.39.41-.49.84h-2c0,1,0,2,0,3.05a7.48,7.48,0,0,0,.18,2.86H62.6l.34.37-.28.41Z" style="fill:#232222"/><path d="M63.71,46.57A4.53,4.53,0,0,1,66,44a3.9,3.9,0,0,1,3.4-.06,4.72,4.72,0,0,1,2.24,2.65v1.31a2.85,2.85,0,0,1-.2,1.44,5.53,5.53,0,0,1-1.22,1.62,9.8,9.8,0,0,1-1.75.91,4.84,4.84,0,0,1-3.27-.66,5.54,5.54,0,0,1-1.48-2.11c-.06-.11,0-.27,0-.41ZM68.34,51a5.62,5.62,0,0,0,.85-.76,3.23,3.23,0,0,0,.59-1.17A10.54,10.54,0,0,0,70,47.85,3.71,3.71,0,0,0,68.91,45a1.57,1.57,0,0,0-1.43-.64,2.21,2.21,0,0,0-1.55,1,4.39,4.39,0,0,0-.38,3.72c.53,1.62,1.24,2.11,2.57,2Z" style="fill:#232222"/><path d="M122.29,50.09a2,2,0,0,0-.29.3,2.87,2.87,0,0,1-2.75,1.44,3.42,3.42,0,0,1-1.25-.18,3.06,3.06,0,0,1-1.55-.89,3.86,3.86,0,0,1-.89-2.38c0-.4,0-.81,0-1.22a3.73,3.73,0,0,1,1.14-2.68,2.73,2.73,0,0,1,1.6-.8,5.8,5.8,0,0,1,1-.2,2.9,2.9,0,0,1,2.92,3l-.32.32h-4.78c.15.65-.07,1.24.17,1.89a2.53,2.53,0,0,0,2.62,2c.07,0,.14,0,.17-.06.88-.16,1.31-.94,2-1.45C122.4,49.45,122.22,49.8,122.29,50.09Zm-2.12-5.15-.61-.62a1.6,1.6,0,0,0-1.37.31,1.92,1.92,0,0,0-.78,1.26h3Z" style="fill:#232222"/><path d="M161.4,46.77h-5.11a3.45,3.45,0,0,0,1.5,3.6,2.33,2.33,0,0,0,2,.06l1.31-1.32.49.41a4.9,4.9,0,0,1-1,1.54,2.5,2.5,0,0,1-1.92.76c-.52,0-1.07.21-1.54-.19-1.35-.22-1.9-1.23-2.31-2.35a5.15,5.15,0,0,1,.23-3.8,3,3,0,0,1,2.44-1.79c.18,0,.35-.16.53-.2a3.14,3.14,0,0,1,3.09,1.75A12.33,12.33,0,0,1,161.4,46.77Zm-5-.87h3.08c.08-.79-.5-1.16-.89-1.58h-.73A2.27,2.27,0,0,0,156.41,45.9Z" style="fill:#232222"/><path d="M142.46,51.83h-1.32a3.42,3.42,0,0,1-3.22-2.71,8.76,8.76,0,0,1-.19-1.54,4.83,4.83,0,0,1,1-2.92,5.7,5.7,0,0,1,1.29-1,7.31,7.31,0,0,0,1.14-.18A2.77,2.77,0,0,1,144,45c.06.12.14.22.2.33s.12.22.21.4v.94l-.07.07a.14.14,0,0,1-.09,0h-4.87a3.48,3.48,0,0,0,1.52,3.66c1.67.3,1.67.3,3.36-1.27l.42.56A4.26,4.26,0,0,1,142.46,51.83Zm-.75-7.52a1.76,1.76,0,0,0-1.38.34,3.75,3.75,0,0,0-.72,1.23h3C142.66,45.12,142.12,44.74,141.71,44.31Z" style="fill:#232222"/><path d="M239,50.43c1.5.36,2.22.07,3.15-1.25.58.35.57.37.35.86A3.89,3.89,0,0,1,241,51.6a2.55,2.55,0,0,1-.53.23h-1.3a3.11,3.11,0,0,1-2.55-1.37,4.55,4.55,0,0,1-.65-1.77,3.43,3.43,0,0,1-.13-1.54c.13-.39.12-.76.21-1.12a5.77,5.77,0,0,1,1.67-2.12,4.11,4.11,0,0,0,1.24-.27,1.16,1.16,0,0,1,.85-.13,4,4,0,0,1,1.45.43,2.64,2.64,0,0,1,1.25,2.42v.37h-5.05A3.65,3.65,0,0,0,239,50.43Zm1.73-4.52-.55-1.27A1.45,1.45,0,0,0,239,44.3a2.31,2.31,0,0,0-1.36,1.61Z" style="fill:#232222"/><path d="M163,20.31a1.4,1.4,0,0,0-1.11-.8c-.31-.07-.47-.21-.51-.49s.15-.47.44-.55A22.34,22.34,0,0,0,165.1,17l.28.57a1.54,1.54,0,0,1-.19,1.1c-.07.05-.19.11-.19.16q0,4,0,8c0,.05.12.1.19.16s.18.15.2.24a3.62,3.62,0,0,1,0,.57v.52l1.63.3v.4h-5.9v-.41c.17,0,.39.07.48,0a2.25,2.25,0,0,1,1.35-.44v-.36l.91-.3-.54-.19V20.09Z" style="fill:#a6233b"/><path d="M152.79,21.73v2h-.42l0,.78.25.07.45,1.36-.15.18.61.1.06.79h.72l.13.38h.74v.37a6,6,0,0,0,2.44-.07v-.3h.2c0,.26.19.25.33.17a.5.5,0,0,0,.28-.57h.76l.16-.47.4.23.31-.18V27h-.67l.23.28c-.27.26-.61.44-.8.82-.09.18-.54.13-.39.52a.92.92,0,0,1-.81.41h-3.2l-.13-.41h-1.15v-.77l-.85-.09.27-.29-.66-.12.13-1.3-.49-.34-.06-.75h-.78V21.53a2.15,2.15,0,0,1,.41-1.43c.31-.61.53-1.29,1.22-1.62l.77-.05.11-.36c.25.1.6-.23.75.2-.2.21-.41.4-.6.61s-.68.52-.69,1l.07.66H152a2.44,2.44,0,0,0,0,.35.84.84,0,0,0,.07.26l.74-.2v.81Z" style="fill:#a82339"/><path d="M13.67,35.26c.15,2-.83,3.63-3.32,3.37a2.87,2.87,0,0,1-2.16-3.31,3.43,3.43,0,0,1,1.56-1.84,2.8,2.8,0,0,1,2.35,0C12.72,33.77,13,34.07,13.67,35.26Z" style="fill:#a02539"/><path d="M7.07,19.7a2.63,2.63,0,0,1-2.73-2.76,2.53,2.53,0,0,1,2.72-2.7,2.73,2.73,0,0,1,2.75,2.68,4.11,4.11,0,0,1-.77,2A3,3,0,0,1,7.07,19.7Z" style="fill:#a02539"/><path d="M6.55,22.63A2.89,2.89,0,0,1,4.47,26a3.08,3.08,0,0,1-2.41-.54,2.22,2.22,0,0,1-.77-1.2A2.52,2.52,0,0,1,1.48,22,2.31,2.31,0,0,1,2.73,20.8C4.13,20.34,5.47,20.46,6.55,22.63Z" style="fill:#a02539"/><path d="M29.83,48.17h-1a2.56,2.56,0,0,1-2.56-2.39,2.83,2.83,0,0,1,1.33-2.68,1.48,1.48,0,0,1,.82-.21c.54,0,1.08,0,1.58,0A2.83,2.83,0,0,1,29.83,48.17Z" style="fill:#a02539"/><path d="M24.63,32.91a4,4,0,0,1-1.49-1,3.77,3.77,0,0,1-.49-1.62,2.36,2.36,0,0,1,.49-1.62c.3-.52.89-.72,1.51-1,.78.09,1.72-.26,2.51.53A3,3,0,0,1,28.08,31a4.8,4.8,0,0,1-1,1.45,1.71,1.71,0,0,1-1.22.49C25.43,32.89,25,32.91,24.63,32.91Z" style="fill:#9f253a"/><path d="M12.66,46.13h.63a3.84,3.84,0,0,1,1.23,1.12c.89,1.41.11,3.82-1.43,4a2.65,2.65,0,0,1-2.85-.52,2.3,2.3,0,0,1-.57-1A2.68,2.68,0,0,1,11,46.26a1.76,1.76,0,0,1,.66-.13Z" style="fill:#a02539"/><path d="M40.93,17.7a7.3,7.3,0,0,0,0-1,2.42,2.42,0,0,1,1.21-2.32A1.46,1.46,0,0,1,43.2,14c.34,0,.68,0,.92,0a3,3,0,0,1,2.1,2.14s0,.26,0,.5a3.94,3.94,0,0,1-.08,1,3,3,0,0,1-.54.89A2.9,2.9,0,0,1,45,19a1.74,1.74,0,0,1-1.08.34c-.47,0-.95,0-1.42,0a7.93,7.93,0,0,1-.93-.68A6.3,6.3,0,0,1,40.93,17.7Z" style="fill:#a1253a"/><path d="M27.92,8.51a2.16,2.16,0,0,1-1.46,1.64,4.11,4.11,0,0,1-1.63.19c-1.52-.85-1.26-.7-2-1.73v-2a3.08,3.08,0,0,1,2-1.7,2.62,2.62,0,0,1,2,.32,1.82,1.82,0,0,1,1,1.42Z" style="fill:#a1253a"/><path d="M38.29,51a1.41,1.41,0,0,1-1.14-.42l-.73-.66-.2-2a2.73,2.73,0,0,1,5.35,0l-.18,1.93c-.59.52-1,1.25-1.88,1.16Z" style="fill:#a02539"/><path d="M24.87,55.49a1.55,1.55,0,0,1-1.4-.73A2.82,2.82,0,0,1,23,52a2.76,2.76,0,0,1,2.14-1.77,2.79,2.79,0,0,1,2.32.71,2.4,2.4,0,0,1,.78,1.38,2.64,2.64,0,0,1-.07,1.34c-.06.19.15.59-.27.63h-.41v.61c0,.3-.25.17-.41.2H25.94l-.14.41Z" style="fill:#a1253a"/><path d="M47,27.42a3.54,3.54,0,0,1,1.69-.08,3.29,3.29,0,0,1,2,1.62c0,.42,0,.86,0,1.3a2.13,2.13,0,0,1-1.25,2c-.22.14-.45.24-.72.39A2.9,2.9,0,0,1,46.17,32a3.24,3.24,0,0,1-.74-2.83l.38-.49c.45.23.32-.5.69-.4C46.54,27.88,47.14,27.88,47,27.42Z" style="fill:#a1253a"/><path d="M31,18.88a1.43,1.43,0,0,1-.82-1.32c0-.32-.36-.62-.18-.92s.1-.58.2-.84a1.9,1.9,0,0,1,1-1.19,7.06,7.06,0,0,0,.72-.41c.34,0,.74,0,1.14,0a1.64,1.64,0,0,1,1.4.56c.23.25.47.48.79.8l.22,1.82a4.38,4.38,0,0,1-1.23,1.76,1.59,1.59,0,0,1-.45.15H31.58v-.41Z" style="fill:#a02539"/><path d="M33.81,23.66s-.1.39,0,.56-.06.44,0,.66a1.55,1.55,0,0,1-.64,1.46c-.27.23-.56.44-.86.68h-2a2.85,2.85,0,0,1-1.57-3.6,3.05,3.05,0,0,1,1.59-1.51,3.26,3.26,0,0,1,2.2.05C32.92,22.45,33.55,22.77,33.81,23.66Z" style="fill:#a02539"/><path d="M36.25,29.34c0,1.09.16,2.11-.64,2.89A2.8,2.8,0,0,1,31,30.78,2.81,2.81,0,0,1,33,27.64H34.5A3.41,3.41,0,0,1,36.25,29.34Z" style="fill:#9f253a"/><path d="M30.25,33.53H32c.73.37,1.47.67,1.77,1.68l.16,1a3.15,3.15,0,0,1-1.42,2.33,3.1,3.1,0,0,1-2.78-.11,2.28,2.28,0,0,1-1-1.26A2.82,2.82,0,0,1,30.25,33.53Z" style="fill:#a02539"/><path d="M1.68,38.81c-.5-.71-.71-.86-.4-2.34.19-.93.94-1.32,1.81-1.71H4.93L6.32,36a10.81,10.81,0,0,1,.23,1.13,9.08,9.08,0,0,1,0,1l-1.07,1.5A3.85,3.85,0,0,1,3.32,40a2.45,2.45,0,0,1-.62-.19v-.35l-.54-.67Z" style="fill:#a02539"/><path d="M33.81,49.39a2.19,2.19,0,0,1,1.43,2.37c0,.31,0,.61,0,.91a2.84,2.84,0,0,1-5.28.08c0-1.32-.21-2.72,1.41-3.36V50l.3-.63c.56.07,1.14-.13,1.61.11Z" style="fill:#a32339"/><path d="M36.46,23.76a1.54,1.54,0,0,1-.81-1.12c-.14-.45-.43-.9,0-1.37a2.29,2.29,0,0,1,1.62-2,.36.36,0,0,0,.12-.13,3,3,0,0,1,3,.9,2.92,2.92,0,0,1,.44,3c-.33.33-.65.68-1,1-.11.1-.3.1-.45.15h-2l-.14-.41Z" style="fill:#a1253a"/><path d="M27.92,22.54c.13.86-1.08,2-1.78,2a3.78,3.78,0,0,0-.46.1.33.33,0,0,0-.11.07,3.73,3.73,0,0,0-.88-.16,2.44,2.44,0,0,1-1.87-2c0-.53,0-1.08,0-1.53a3.43,3.43,0,0,1,2.07-1.81,4.36,4.36,0,0,1,1.47.19,2.31,2.31,0,0,1,1.55,1.84Z" style="fill:#a02539"/><path d="M31.37,11.15a1.44,1.44,0,0,1-1.29-1A6,6,0,0,1,29.56,9,2.89,2.89,0,0,1,30,7.22a1.77,1.77,0,0,1,1.4-1h2a1.43,1.43,0,0,1,.44.15c.33.29.63.62.9.89a3.38,3.38,0,0,1,0,2.7l-1.14,1.14H31.37Z" style="fill:#a02539"/><path d="M45.81,25.39a2.08,2.08,0,0,1-1.59-1.68,2.48,2.48,0,0,1,.17-1.84,1.69,1.69,0,0,0,0-.34c.13-.1.34-.27.54-.45s.39-.38.58-.57h2.34a2.09,2.09,0,0,1,1.62,1.94,3.5,3.5,0,0,1-.37,2.06,1.77,1.77,0,0,1-1.25.88Z" style="fill:#a1253a"/><path d="M11.24,26.2a2.1,2.1,0,0,1,1.42,1.67c0,.55,0,1.09,0,1.77L11.43,31c-.44.1-.78.2-1.12.24a5.35,5.35,0,0,1-.79,0,3,3,0,0,1-2.14-2.13c0-.2,0-.61,0-1a1.89,1.89,0,0,1,.81-1.53h1l.33-.41Z" style="fill:#a02539"/><path d="M49.47,38.2a2.18,2.18,0,0,1-2.34,1.43c-.4,0-.8,0-1.2,0-.47-.46-1.2-.66-1.34-1.43V36a1.49,1.49,0,0,1,.15-.45c.29-.32.62-.62.91-.91a3.68,3.68,0,0,1,2.69-.09c.33.33.67.65,1,1a1.09,1.09,0,0,1,.15.45Z" style="fill:#a2253a"/><path d="M11.24,14.41H10.8L9.56,13.24l-.2-2a3.39,3.39,0,0,1,1.89-1.93h.88a2.21,2.21,0,0,1,2.36,1.43V13a1.92,1.92,0,0,1-1.42,1.43Z" style="fill:#a2253a"/><path d="M14.49,23.56l-.2.2h-.61v.41H11.85c-.91-.13-1.36-.8-1.83-1.54a7.76,7.76,0,0,0,0-1,2.62,2.62,0,0,1,1.47-2.52c.56.08,1-.53,1.67-.13.3.19.79,0,1,.46.56.06.65.58.92.92a3.1,3.1,0,0,1,.22.52v1.62h-.82Z" style="fill:#a02539"/><path d="M37.27,35.56a3.6,3.6,0,0,1,0-.57c0-.09.13-.17.19-.24s.2.2.26.19a7.12,7.12,0,0,0,.76-.31v-.9c.1-.39.41-.13.61-.2h1.42a1.71,1.71,0,0,1,1.63,1A2.77,2.77,0,0,1,42,37.8c0,.05,0,.14-.08.17-.27.15-.56.28-.83.44a2.11,2.11,0,0,1-1.73.32,3,3,0,0,1-1.91-1.49,1.8,1.8,0,0,1-.13-.66Z" style="fill:#a1253a"/><path d="M245,46.3c.59.27,1.21.48,1.83.7a2.42,2.42,0,0,1,1.72,1.65c0,.22,0,.62,0,1a1.84,1.84,0,0,1-1.28,1.88,4.13,4.13,0,0,1-3,.07c-.69-.23-.69-.86-.84-1.4-.09-.31.13-.68-.27-1l.7-.35c.63.67.71,1.63,1.54,2.11h1.18l.7-.75a4.08,4.08,0,0,0-.11-.92,1.64,1.64,0,0,0-1.34-.93,3.6,3.6,0,0,1-1.69-.84s-.13,0-.21,0l-.51-1a2.59,2.59,0,0,0,0-.4A2,2,0,0,1,244.57,44a2.05,2.05,0,0,1,2.25-.32,1.75,1.75,0,0,1,1.5.69l.2,1.3-.53.39c-.25-.27-.45-.48-.63-.69a5.94,5.94,0,0,0-.49-.61c-.39-.36-.81-.63-1.36-.25-.08.06-.24,0-.32,0A1.27,1.27,0,0,0,245,46.3Z" style="fill:#232222"/><path d="M21,52.85c-.12,1-.93,1.35-1.76,1.62-.21.07-.43.09-.76.16a2.23,2.23,0,0,0-.49-.15,1.93,1.93,0,0,1-1.87-1.63V51.07l.41-.13V50.2a1.76,1.76,0,0,1,.9-.82,2.57,2.57,0,0,1,1.22-.19c.41.05.81.13,1.23.2L21,50.52v2.33Z" style="fill:#9f253a"/><path d="M172.11,27.83h.2v.41c-.08.47-.55.33-.81.48v.33h-.82v-.42h-1.09l-.33-.39V28l.2-.2c.26.11.49-.33.76,0l.06-.16.36.17.08-.08-.24-.3a7.54,7.54,0,0,1-.2-.82c0-.3,0-.6,0-.9,0-1.61,0-3.22,0-4.83a3.6,3.6,0,0,0,0-.36h-.36V19.7h.41v-.82h-2.44v-.31l.44-.2v-.71c.36,0,.69,0,1,0,.06,0,.11-.12.16-.19s.19-.17.2-.26a16,16,0,0,1,.24-2.51,3.61,3.61,0,0,1,.78-1.91H171l.76-1.15.4.76c-.31.28-.21.65-.23,1l-.2.2c-.3,0-.17.26-.2.41h-.41c0,.61,0,1.14,0,1.68a13.84,13.84,0,0,0,0,1.58h.78c0,.3.26.17.41.2s.16.19.25.19c.32,0,.65,0,1,0l-.06,1.06-.49-.65-.92.31.25.5h-.41a5.55,5.55,0,0,0-1.22.06v.76h.82v.4h-.84c.08.72.2,1.36.22,2,0,1.45,0,2.9,0,4.35,0,.15-.08.36.2.36a3.19,3.19,0,0,1,.4.33s0,.17,0,.28l-.33-.2,0,.32A1.75,1.75,0,0,0,172.11,27.83Z" style="fill:#a42339"/><path d="M107.06,50.14l.72.71a5.14,5.14,0,0,1,.79-.23,6.31,6.31,0,0,1,.88,0l0,.51a3.42,3.42,0,0,1-2.73.69c-.22,0-.44-.24-.63-.4s-.44-.43-.69-.68v-5.8H104.2l0-.52a12,12,0,0,0,2.54-2.81c.59.22.66.66.46,1s0,.7-.18,1.08h2.64v1l-.26.26h-2.31Z" style="fill:#232222"/><path d="M17.34,6.27s0-.09,0-.09A3.11,3.11,0,0,1,20.57,7,1.38,1.38,0,0,1,21,8.1V9.53l-.81.43v.79h-.82v.4s0,.1,0,.1a2.73,2.73,0,0,1-3.59-1.78A5.84,5.84,0,0,1,15.7,8l.42-.54a2.35,2.35,0,0,0,.45-.14c.33-.18.35-.68.77-.79A1.31,1.31,0,0,0,17.34,6.27Z" style="fill:#a2253a"/><path d="M36.46,39.63c1,.13,1.39.92,1.86,1.9l-.18,1.81c-.37.36-.69.71-1,1a1.34,1.34,0,0,1-.44.15h-2c-.08-.24-.24-.33-.47-.44s-.31-.31-.48-.47-.2-.37-.48-.31a2.25,2.25,0,0,1-.29-1.45,4.62,4.62,0,0,1,.5-1.42c.09-.16.27-.26.4-.39s.52.19.61-.2l.34.19.14-.39Z" style="fill:#a32339"/><path d="M43.37,4.24a1,1,0,0,1-.4-1V2a1,1,0,0,1,.4-1h.41V.58a.5.5,0,0,1,.61-.41h2.24c.62,0,.9.55,1.2.94a2.57,2.57,0,0,1-.19,3.13L47.3,4a4,4,0,0,1-.42.6c-.17.19-.44.09-.63.08L46.16,5a2.16,2.16,0,0,1-1-.08l-.53.09a.93.93,0,0,1-.81-.4V4.24Z" style="fill:#a32339"/><path d="M19.78,47.35A1.93,1.93,0,0,1,19,45.82a.33.33,0,0,1,0-.1V44.66a7.58,7.58,0,0,0,.4-.7,2,2,0,0,1,1.49-1.08,2.84,2.84,0,0,1,.93-.18c.27,0,.54.15.82.2A2.35,2.35,0,0,1,24.25,45c0,.44,0,.88,0,1.32,0,.09-.13.17-.2.26h-.78c0,.6-.57.79-.75,1.19H20.64l-.1-.38Z" style="fill:#a32339"/><path d="M14.49,31.08a5.58,5.58,0,0,1,.19-1.85,2.75,2.75,0,0,1,2-1.6,4.59,4.59,0,0,1,.91,0,5.35,5.35,0,0,1,.86.24l1,1a3.52,3.52,0,0,1,0,2.81c-.2.2-.52.55-.87.86-.11.1-.3.1-.45.15H16.53l.23-.46-.58.22-.86-.68.21-.24-.7-.14.46-.21,0-.12Z" style="fill:#a32339"/><path d="M27.92,39.22c.1.56-.33.86-.61,1.22h-1l-.1.41h-2a2.09,2.09,0,0,1-1.43-1.67c0-.54,0-1.08,0-1.62A3.18,3.18,0,0,1,24.43,36c.29,0,.66,0,1,0a2,2,0,0,1,2.05,1l0,.82.37-.21v1.63Z" style="fill:#a32339"/><path d="M.66,28.64a2.37,2.37,0,0,1,3-.81,1.61,1.61,0,0,0,.44,0l.67.81.13.58-.13.16.41.15c-.06.69.19,1.45-.4,2.08-.08.09,0,.33,0,.49A2,2,0,0,1,3.41,33a3.31,3.31,0,0,1-1.93-.14s0-.06,0-.1a3.22,3.22,0,0,0-.07-.36c-.4,0-.34-.59-.78-.53v-.7L.26,31V29.46h.4Z" style="fill:#a32339"/><path d="M19,33.53h1.51A3.79,3.79,0,0,1,22,35a3.22,3.22,0,0,1,.18,1.84,2.33,2.33,0,0,1-.54,1,3.08,3.08,0,0,1-1.08.8c-.56.3-1.11.08-1.59.2a4.14,4.14,0,0,1-1.7-1.2,1.27,1.27,0,0,1-.15-.44,3,3,0,0,0,.19-.63c0-.6,0-1.21,0-1.81h.35l.14-.41h1s.05,0,.09-.09L18.48,34l.69-.11Z" style="fill:#a2253a"/><path d="M23,16c-.06-.09-.19-.18-.19-.27,0-.53,0-1.07,0-1.51a2.64,2.64,0,0,1,1.72-1.89H26a2,2,0,0,1,2,1.62v2a2.56,2.56,0,0,1-1.51-.25l.2.48-.14.75-.59.64a3.18,3.18,0,0,1-1.67-.21,1.74,1.74,0,0,1-.36-.4v-.5c-.18-.12-.38-.19-.39-.28C23.43,15.94,23.2,16.06,23,16Z" style="fill:#a32339"/><path d="M75.1,50.51l.32.32H76.5v.75H72.27v-.73h1a.71.71,0,0,0,.12-.11.26.26,0,0,0,0-.08V45.9c-.14-.6-1.19-.47-1-1.3l2.32-1.15.37,1.27,1.42-1.29,1.44.2.35.66-.45,1.09L76,45.1l-.89,1.08Z" style="fill:#232222"/><path d="M16.93,23.76l.21-.2.6-.29c-.08-.48.21-.7.62-.82v-.31l.49-.39c2.26-.15,2.89.8,3.31,1.88a2.63,2.63,0,0,1-.21,2.1A3,3,0,0,1,20.41,27H19l.2-.35-.68-.14.67-.32H17.81l-.14-.41h-.33v-1l0-1Z" style="fill:#a2253a"/><path d="M113.91,51.6H109.7v-.77h1.17v-5c-.35-.38-1.1-.42-1-1.2l2.43-1.2V45l1.63-1.46h1.14l.49.56c-.09.35.22.86-.32,1.26-.36-.08-.75.09-1.19-.15s-1,.1-1.34.61a3,3,0,0,1-.18.25c-.11,3.79-.09,4.25.27,4.78h1.1Z" style="fill:#232222"/><path d="M136.1,43.49h1.39l.51.89-.49.94c-.39,0-.78.11-1,0a2,2,0,0,0-.9-.17l-.87,1.06v4.33l.33.31h1.06v.76h-4.22v-.73H133a11,11,0,0,0,.28-4.15,1.3,1.3,0,0,0-.92-1.42c-.08,0-.14-.14-.24-.24v-.45l2.3-1.14.4,1.25Z" style="fill:#232222"/><path d="M41.34,42.68a.93.93,0,0,1,.41-.82L42,42a1.75,1.75,0,0,0,.36-.36c.16-.3.64-.36.59-.81h1.42c.16.58.64.36,1,.4l.05.65.27-.24.18.41h.31a2.4,2.4,0,0,1,0,2.74,1.66,1.66,0,0,1-1,.92h-.4v-.47l-.66.26-.43-.26-.34.47h-.81c0-.1,0-.27,0-.28a1,1,0,0,1-.53-.53s-.18,0-.27,0V44.1h-.41l.17-.29C41.19,43.47,41.4,43.05,41.34,42.68Z" style="fill:#a42339"/><path d="M17.75,14a3.16,3.16,0,0,1,2.66,1.12,1.48,1.48,0,0,1,.39,1.05c0,.54,0,1.07,0,1.62l-.61.69h-.76l-.13.37H17l-.1-.37h-.76v-.82h-.41v-.35l.44-.15V15.4l.55-.57.64-.06V14.5l.41-.18Z" style="fill:#a42339"/><path d="M6,41.25h2l.13.41H8.8c-.11.38.27.5.45.83v.77l.34.07V44l-.39.16v.57l-.76.67.36.3H8l-.12.36H6.39l-.07-.34-.82-.06.25-.28a1.6,1.6,0,0,0-1-.5V42.47h.7s.06-.09.09-.13L5,42.13,5.75,42l-.21-.33.87-.07Z" style="fill:#a82339"/><path d="M16.93,40c.55.18.44.83.82,1.12v1.32h-.32l-.59,1.22h-.61L15.9,44c-.38-.13-.69.14-1,.09a10,10,0,0,0-1.23,0l.22-.37-.54-.06c0-.11-.09-.23-.13-.35l-.34-.11V40.85h.3l.41-.81.47,0,.08-.38a4.29,4.29,0,0,0,1,0c.34-.08.6.33.93.08l.12.34Z" style="fill:#a42339"/><path d="M41.54,26.2h.51a9.78,9.78,0,0,0,.72.72c.61.46.56,1.19.81,1.8-.26.51-.13,1.16-.56,1.6a2.86,2.86,0,0,1-1.52,1,3.32,3.32,0,0,1-1.47,0,2.54,2.54,0,0,1-2-2.31c0-.34,0-.68,0-1,.44-.78.76-1.66,1.83-1.79Zm-1.18.64-.48-.24-.55.58v.59l.36.12V29.4l-.36.12v.7c.41.11.76.48,1.22.13l-.37-.12a8.55,8.55,0,0,1,.14-3.52c.22.43.66.26,1,.33V28.2h.82c-.06-.48.08-.93-.16-1.34l.18-.25H40.48S40.37,26.68,40.36,26.84Zm1.78,2h-.81c0,.64-.13,1.27.29,1.76h.52ZM40.37,31c.55,0,.55,0,.5-.18Z" style="fill:#99283a"/><path d="M176.72,51.59l.24-.76h1.21V45.54L177,45c.21-.69.88-.6,1.32-.85s.95-.46,1.51-.73c.11,1.25,0,2.46.05,3.66s0,2.43,0,3.71H181v.79Z" style="fill:#232222"/><path d="M133.26,10.34H134s.05,0,.1-.07l0-.28-.27-.05-.27,0-.13-.36-.54-.06V9.12a8.62,8.62,0,0,1,4.85,1.66l.64-.44H139c0,1.28,0,2.49,0,3.71,0,.14-.08.36.2.36a1.07,1.07,0,0,1,.2.81h-.31l-.19.41h-.72A7.53,7.53,0,0,0,134.77,11a5.83,5.83,0,0,0-1.34-.43C133.36,10.52,133.32,10.41,133.26,10.34Zm2.17-.37h-1l.06.44Z" style="fill:#9f253a"/><path d="M163,14a1.38,1.38,0,0,1-.76-2.37A6.75,6.75,0,0,1,163,11h1.27l.9,1c0,.25,0,.59,0,.92a1.23,1.23,0,0,1-1,1.13Z" style="fill:#99283a"/><path d="M154,18.27c-.15-.43-.5-.1-.75-.2l-.11.36-.77.05a3.45,3.45,0,0,1,2.85-1.22h1.83a2.89,2.89,0,0,1,2.42,1.38,2.46,2.46,0,0,1,.63,1.67v.61l-.41-.21h-.59l.54-.53-.39-.18V18.92l-.55-.1-.08-.32-.54.25-.05.95h-.37c-.39-.05-.1-.39-.24-.55l-.85-.85a3.5,3.5,0,0,0-1-.21,3.63,3.63,0,0,0-.95.38c-.05,0-.13,0-.2,0C154.4,18.17,154.16,18.3,154,18.27Z" style="fill:#99283a"/><path d="M172.11,27.83a1.75,1.75,0,0,1-1-.29l0-.32.33.2c0-.11.08-.24,0-.28a3.19,3.19,0,0,0-.4-.33V20.57l.41-.14V19.29h-.82v-.35a5.55,5.55,0,0,1,1.22-.06v8A1.27,1.27,0,0,0,172.11,27.83Z" style="fill:#99283a"/><path d="M171.9,13.39c0-.35-.08-.72.23-1l-.4-.76L171,12.78h-.29c0-.63.5-1,.8-1.47.51-.81,1.45-1.17,2.17-1.77.1-.08.32,0,.49,0l.32.18c.19-.29.4-.21.56-.05l.54-.12v.3l-.4.19v.31a6.62,6.62,0,0,1-1.5.42A3.81,3.81,0,0,0,172.21,13c-.06.25-.05.51-.11.76,0,.1-.13.18-.2.26h-.4c0-.15-.1-.39.2-.41Z" style="fill:#922939"/><path d="M92.18,33.93l.28-.42c.58.08,1.2-.15,1.75.22v.61h1l.21.2-.41.32v.7c0,.3-.25.17-.41.2-.25-.41-.64-.08-.83-.18l-.88.53.29-.55h-1Z" style="fill:#a82339"/><path d="M195.09,27.22c.06-.43.58,0,.68-.38a3.78,3.78,0,0,0,1.6-1c.06-.07.24-.05.36-.07h.41v-.41h.61v-.61l.2-.2a3.6,3.6,0,0,0,.57,0c.09,0,.17-.13.24-.2.28.21.28.41,0,.61h-.61v.82h-.4v.4a2.89,2.89,0,0,1-1.43,1.22l-.6,0,.2.36-.41.2a.91.91,0,0,1-.9-.59C195.45,27.34,195.14,27.6,195.09,27.22Z" style="fill:#a1253a"/><path d="M159.7,20.71l.41.21c.07.2-.19.51.2.61,0,.33-.3.19-.46.19h-6.66a.86.86,0,0,1,.82-.81h3.66v.45l1.06-.2.66.19Z" style="fill:#a62340"/><path d="M175.16,10.34V10l.4-.19v-.3l-.54.12c-.16-.16-.37-.24-.56.05l-.32-.18a1.54,1.54,0,0,1,1.16-.41h1.89c-.29.49.45.27.43.63,0,.13.77.53,1,.59s.18.25.21.41l-.32-.19L178,11l0,.52h-1.2l.18-.3-.18-.31c.27-.09.48-.22.37-.61h-2Z" style="fill:#a6233b"/><path d="M233.44,39.43l.48.51v1.23l-.56.47a1.74,1.74,0,0,1-1.64-.47V39.9A1.89,1.89,0,0,1,233.44,39.43Z" style="fill:#232222"/><path d="M177.39,40.8v-.65l.81-.71h1l.75,1.08-.72,1.12H178.1Z" style="fill:#232222"/><path d="M114.55,27h-.31l-.06-.07a.16.16,0,0,1,0-.09V9.62l-.46-.23a5.15,5.15,0,0,1-1.78.14v-.1a9.77,9.77,0,0,1,2.44-.28V25.28a6.91,6.91,0,0,0,0,.91A6.2,6.2,0,0,0,114.55,27Z" style="fill:#773b42"/><path d="M208.31,21.32h1.42v.21c0,.33-.3.19-.46.19h-6.05l-.15-.56.25-.25h3.16v.4Z" style="fill:#a62340"/><path d="M60.25,10.75h.51a5.86,5.86,0,0,0,.11,1.1q0,7.7,0,15.4v.69l-.4-.52c.4-4.86.11-9.74.2-14.61a2.25,2.25,0,0,0-.18-1C60.34,11.47,60.52,11.05,60.25,10.75Z" style="fill:#80303e"/><path d="M12.87,40.85v2.36l.34.11c0,.12.09.24.13.35l.54.06-.22.37a10,10,0,0,1,1.23,0c.32,0,.63-.22,1-.09l.33-.33h.61l.59-1.22h.32a2.1,2.1,0,0,1-1.26,1.83c-.21.14-.44.24-.72.4a2.87,2.87,0,0,1-2.91-1.1,3.36,3.36,0,0,1-.4-2.07.93.93,0,0,1,.41-.89Z" style="fill:#862c38"/><path d="M224.78,27h.31l.06-.07a.16.16,0,0,0,0-.09c0-2.09,0-4.18,0-6.29l.27-.07c0,.06.13.1.13.15V26.9l-.61.73C224.59,27.53,224.86,27.22,224.78,27Z" style="fill:#922939"/><path d="M80.39,23.76l.56.15.27-.27V22.58l.37,0v1.08l.62.48-1,.1v1.56l.32.07v.79c.19.31.56.42.45.8a3.7,3.7,0,0,1-1.42-2.64C80.54,24.44,80.45,24.1,80.39,23.76Z" style="fill:#99283a"/><path d="M150.75,25h.78l.06.75.49.34-.13,1.3.66.12-.27.29.85.09v.77c-.06,0-.15,0-.2,0a5.28,5.28,0,0,1-2.24-3.25,1.33,1.33,0,0,1,0-.2Z" style="fill:#8f2c3d"/><path d="M171.5,14h.4v3.26h-.78a13.84,13.84,0,0,1,0-1.58c0-.54,0-1.07,0-1.68Z" style="fill:#a62340"/><path d="M78.56,27.42c-.34,0-.2-.3-.2-.46q0-3,0-6.09c0-1.87,0-3.73,0-5.59,0-.16-.14-.43.2-.47q0,5.85,0,11.68a1.27,1.27,0,0,0,.21.93Z" style="fill:#7c3340"/><path d="M172.31,18.88l-.25-.5.92-.31.49.65.06-1.06h1.34l.32.71-.44.2v.31Z" style="fill:#a62340"/><path d="M239.83,27.63l-.28-.6h-.47l-.14.39H238a5.34,5.34,0,0,1,.57-.4,2.18,2.18,0,0,0,1.31-1.16c.07-.17.28-.29.42-.43l.51.22v.89C240.41,26.8,240.39,27.46,239.83,27.63Z" style="fill:#8f2c3d"/><path d="M76.52,15.22c.34,0,.2.3.2.47q0,3.6,0,7.21c0,1.25,0,2.5,0,3.75,0,.15.08.36-.2.37Z" style="fill:#773b42"/><path d="M227.63,27.42h-.51a2,2,0,0,1-.31-1.18c0-2.29,0-4.58,0-6.94H226v-.42h1c0,2.23,0,4.45,0,6.67A2.91,2.91,0,0,0,227.63,27.42Z" style="fill:#7c3340"/><path d="M169.26,28.24l.33.39h1.09v.42h-3.1s-.06,0-.15-.07v-.74Z" style="fill:#a82339"/><path d="M16.12,18.48h.76l.1.37H19.3l.13-.37h.76l-.67.8C17.5,19.59,16.94,19.46,16.12,18.48Z" style="fill:#882e3e"/><path d="M76.32,27.83v.31l-.43.2.48.21-.46.15v.35h-1.5c-.38-.23-.37-.58-.28-1,.38,0,.77,0,1.17,0A9.18,9.18,0,0,0,76.32,27.83Z" style="fill:#8f2c3d"/><path d="M19.78,47.35h.76l.1.38h1.88c.18-.4.73-.59.75-1.19h.78a1.2,1.2,0,0,1-.14.44c-.29.32-.61.62-.88.88a4.21,4.21,0,0,1-2.14.3C20.59,47.8,20,47.89,19.78,47.35Z" style="fill:#882e3e"/><path d="M154,20.92a.86.86,0,0,0-.82.81h-.4v-.61l.16-.07-.16-.13v-.41l-.07-.66c0-.45.41-.66.69-1s.4-.4.6-.61c.15,0,.39-.1.4.21-.5.7-1.3,1.21-1.34,2.23H154Z" style="fill:#922939"/><path d="M169.67,18.88h.2v8.39a.19.19,0,0,0,0,.08l.06.07h.32v.21l-.06.16c-.27-.29-.5.15-.76,0a1.27,1.27,0,0,0,.21-.93C169.66,24.23,169.67,21.55,169.67,18.88Z" style="fill:#77313e"/><path d="M206.48,20.92h-3.16l-.25.25.15.56h-.5c-.28.11.12.57-.31.61V21.4l.37-.12.05-.28-.36-.13c-.07-.23-.13-.47-.2-.71l.24-.46H203l-.23,1h3.69Z" style="fill:#8a2c3a"/><path d="M17.75,14v.32l-.41.18v.27l-.64.06-.55.57v1.76l-.44.15v.35c-.06-.08-.19-.17-.19-.26,0-.47,0-.94,0-1.38l.2-.45a2.23,2.23,0,0,1,1.72-1.37C17.54,14.18,17.64,14.07,17.75,14Z" style="fill:#882e3e"/><path d="M155.23,27.42h-.74l-.13-.38h-.72l-.06-.79-.61-.1.15-.18-.45-1.36-.25-.07,0-.78h.42a6.55,6.55,0,0,0,.28,1.18,5.14,5.14,0,0,0,2,2.28C155.14,27.27,155.17,27.36,155.23,27.42Z" style="fill:#8a2c3a"/><path d="M82.62,18.88l.14.31-1.25,1.09.48.36,0,.67c-.45,0-.86.1-1.23-.19,0-.63.51-1,.78-1.46a3.76,3.76,0,0,1,.85-.78Z" style="fill:#99283a"/><path d="M8.8,45.73l-.36-.3.76-.67v-.57L9.59,44v-.7l-.34-.07v-.77c-.18-.33-.56-.45-.45-.83l.74.61a3.77,3.77,0,0,1,0,2.84Z" style="fill:#80303e"/><path d="M95.23,34.34h-1v-.61h.46a1.91,1.91,0,0,0,.77-1,2.36,2.36,0,0,1,.42-.82c.26-.24,0-.68.39-.81V32.3h-.38l-.06.79-.31.06c0,.05-.06.07-.06.1,0,.36,0,.73,0,1.09Z" style="fill:#8f2c3d"/><path d="M163,20.31l.37-.22v7.25l.54.19-.91.3a1.6,1.6,0,0,0,.22-.73q0-3,0-6.07A1.6,1.6,0,0,0,163,20.31Z" style="fill:#77313e"/><path d="M165.19,27c-.07-.06-.19-.11-.19-.16q0-4,0-8c0-.05.12-.11.19-.16Z" style="fill:#77313e"/><path d="M12.87,40.85v-.21c0-.15.05-.34.14-.43a4.12,4.12,0,0,1,.92-.71A1.87,1.87,0,0,1,15,39.25c.68.13,1.49,0,1.92.78H16.2l-.12-.34c-.33.25-.59-.16-.93-.08a4.29,4.29,0,0,1-1,0l-.08.38-.47,0-.41.81Z" style="fill:#80303e"/><path d="M197.93,14.81h.3l.35.47c.09-.08.13-.1.13-.13,0-.86,0-1.71,0-2.57.06,0,.16,0,.16.07.11,1,.2,2.07.3,3.15h-.8A1.46,1.46,0,0,1,197.93,14.81Z" style="fill:#882e3e"/><path d="M25.88,17.66l.59-.64.14-.75-.2-.48a2.56,2.56,0,0,0,1.51.25c-.05.14-.05.33-.15.43-.31.35-.65.66-.93,1Zm1.43-1.35v.06h.2v-.06Z" style="fill:#8a2c3a"/><path d="M214.61,27.83h-.3s-.1-.11-.1-.16q0-3.34,0-6.7c0-.16-.14-.42.2-.46V26.9A1.31,1.31,0,0,0,214.61,27.83Z" style="fill:#773b42"/><path d="M4.73,44.91a1.6,1.6,0,0,1,1,.5l-.25.28.82.06.07.34H7.92L8,45.73H8.8l-.68.61c-.36,0-.69,0-1,0A2.23,2.23,0,0,1,4.73,44.91Z" style="fill:#80303e"/><path d="M172.31,28.24v-.41a2.45,2.45,0,0,0,.62.19c.5,0,1,0,1.56,0v1h-.55v-.42a1.63,1.63,0,0,1-1.27-.33C172.58,28.24,172.43,28.26,172.31,28.24Z" style="fill:#99283a"/><path d="M146.07,27c-.06-.09-.19-.18-.19-.26,0-2.06,0-4.12,0-6.25h.41a6.25,6.25,0,0,0-.2.83c0,.3,0,.61,0,.91Z" style="fill:#773b42"/><path d="M14.49,31.08h.78l0,.12-.46.21.7.14-.21.24.86.68.58-.22-.23.46h1.62c0,.06,0,.17-.07.17a4.07,4.07,0,0,1-2-.16s-.13,0-.25,0A5,5,0,0,1,14.49,31.08Z" style="fill:#7e2f3a"/><path d="M176.6,11.08a.31.31,0,0,1,.36.18l-.18.3v.2c-.44,0-.63-.28-.81-.61v-.4h-.41c-.3,0-.17-.26-.2-.41h1.79c.11.39-.1.52-.55.74,0,0,.09-.13.25-.28l-.48,0C176.39,10.92,176.39,11,176.6,11.08Z" style="fill:#922939"/><path d="M233.73,17.66c.28.49-.32.37-.45.6a6.93,6.93,0,0,1-1.17,1.23l0,.56-.31.07-.18.39h-.31a1.86,1.86,0,0,1,.52-1.19,14,14,0,0,1,1.62-1.65C233.48,17.62,233.63,17.66,233.73,17.66Z" style="fill:#882e3e"/><path d="M160.11,27V26.6l-.31.18-.4-.23-.16.47h-.56l.79-.89a5.79,5.79,0,0,0,.35-.52c.45-.21.6.28.91.49C160.4,26.34,160.48,26.83,160.11,27Z" style="fill:#882e3e"/><path d="M153.19,28.64h1.15l.13.41h3.2v.1c-.8.05-1.57.64-2.39.1a3.59,3.59,0,0,1-1.93-.41C153.28,28.81,153.24,28.71,153.19,28.64Z" style="fill:#80303e"/><path d="M84.45,29.05h3.16l.3-.31,1-.27a.14.14,0,0,1,.06.07.17.17,0,0,1,0,.1c-.22.48-.8.26-1.1.59-.84-.17-1.66.58-2.53,0-.17-.11-.46,0-.69,0C84.55,29.24,84.51,29.12,84.45,29.05Z" style="fill:#882e3e"/><path d="M122.08,23.76h.56l.08.78.33.06v.61l1.06.89-.18.19.17.22-.19.1a17,17,0,0,1-1.62-2.15c-.05-.06,0-.19,0-.3l0,0,.16-.14L122.4,24a1.09,1.09,0,0,0-.13.17C122,24.15,122.11,23.92,122.08,23.76Z" style="fill:#8a2c3a"/><path d="M230.07,28.44h-.4c.06-.28.6-.14.33-.59h-2.37v-.43a2.45,2.45,0,0,0,2,.11c.38-.12.69,0,1-.13v.85Z" style="fill:#882e3e"/><path d="M172.31,28.24c.12,0,.27,0,.36.06a1.63,1.63,0,0,0,1.27.33v.42H171.5v-.33C171.76,28.57,172.23,28.71,172.31,28.24Z" style="fill:#ac2039"/><path d="M24.26,40.85h2l.1-.41h1a3.14,3.14,0,0,1-2.8.79Z" style="fill:#882e3e"/><path d="M195.09,27.22c0,.38.36.12.52.22a.91.91,0,0,0,.9.59c-.25.35-.69.39-1,.61v-.31l.58-.26-1.8-.33v-.32A1.13,1.13,0,0,1,195.09,27.22Z" style="fill:#8f2c3d"/><path d="M182.07,16.85v4.47c-.07-.08-.19-.17-.19-.26a3.33,3.33,0,0,0-.22-1.62c.11-.87.21-1.73.31-2.59C182,16.84,182,16.85,182.07,16.85Z" style="fill:#80303e"/><path d="M139.16,14.41c-.28,0-.2-.22-.2-.36,0-1.22,0-2.43,0-3.71h-.61c.12-.4.39-.49.81-.34Z" style="fill:#77313e"/><path d="M174.75,18.88v-.31l.44-.2-.32-.71h-1.34c-.32,0-.65,0-1,0-.09,0-.17-.12-.25-.19h3c.11.44,0,.9.08,1.42Z" style="fill:#80303e"/><path d="M95.44,34.34c0-.36,0-.73,0-1.09,0,0,0,0,.06-.1l.31-.06.06-.79h.38v1.23h-.41v.81l-.2.2h-.2Z" style="fill:#a82339"/><path d="M249.59,19.09c-.05-.05-.16-.11-.16-.14.06-.25.14-.48.23-.75l-.47-.35v-.4l-.62-.6a1.43,1.43,0,0,1,1,.5C250.14,17.94,250.14,18.33,249.59,19.09Z" style="fill:#80303e"/><path d="M176.78,11.76v-.2H178l0-.52.48-.48.32.19a3,3,0,0,1-.93,1.22c-.3,0-.63,0-.95,0C176.88,12,176.83,11.83,176.78,11.76Z" style="fill:#80303e"/><path d="M.26,29.46V31l.37.1v.7c.44-.06.38.53.78.53a3.22,3.22,0,0,1,.07.36A2.16,2.16,0,0,1,.07,30.33C.08,30-.19,29.66.26,29.46Z" style="fill:#80303e"/><path d="M143.84,27.83v.37l-1,.05-.56.51.16.29h-.57l-.05-1c.4,0,.77,0,1.12,0A7.33,7.33,0,0,0,143.84,27.83Z" style="fill:#882e3e"/><path d="M215.42,18.07c0,.14.09.32-.15.41a2,2,0,0,0-.44.39h-.75a2.48,2.48,0,0,1-.28-1.61h.4v1.55a6.21,6.21,0,0,0,.63-.46C215,18.19,215.15,18,215.42,18.07Z" style="fill:#8f2c3d"/><path d="M167,29.05v-.4l-1.63-.3v-.52a2.88,2.88,0,0,0,.63.2c.36,0,.73,0,1.18,0C167.15,28.38,167.44,28.75,167,29.05Z" style="fill:#8f2c3d"/><path d="M4.73,32.1c0-.16-.07-.4,0-.49.59-.63.34-1.39.4-2.08l-.41-.15.13-.16-.13-.58.6.68v2C5.12,31.57,5.15,32,4.73,32.1Z" style="fill:#7c3340"/><path d="M11.24,26.2H9.48l-.33.41h-1c.05-.38.38-.11.58-.26l0-.26S8.9,26,9,26s.43.05.57,0a.76.76,0,0,1,1,0C10.71,26.13,11.1,25.77,11.24,26.2Z" style="fill:#80303e"/><path d="M44.59,5.05,45.12,5a2.16,2.16,0,0,0,1,.08l.09-.32c.19,0,.46.11.63-.08A4,4,0,0,0,47.3,4l.34.2c-.24.59-.86.69-1.37,1-.43,0-.93,0-1.42,0C44.76,5.24,44.68,5.12,44.59,5.05Z" style="fill:#753237"/><path d="M227.22,15.22H226c.17-.3.25-.66.56-.85a2.93,2.93,0,0,1,.66-.23Z" style="fill:#8a2c3a"/><path d="M89.33,28.44v-.51l1-.91H91A3.69,3.69,0,0,1,89.33,28.44Z" style="fill:#882e3e"/><path d="M36.46,23.76h.73l.14.41h2c-.75.46-.75.45-1.48.24-.33-.09-.68-.13-1-.25C36.68,24.1,36.58,23.9,36.46,23.76Z" style="fill:#7c3340"/><path d="M17.34,25.8h.33l.14.41h1.35l-.67.32.68.14L19,27a2.71,2.71,0,0,1-1.48-.78C17.39,26.13,17.39,26,17.34,25.8Z" style="fill:#862c38"/><path d="M92.79,35.56h.41l-.29.55.88-.53c.19.1.58-.23.83.18a1.68,1.68,0,0,1-2,.21Z" style="fill:#862c38"/><path d="M19,33.53l.2.35-.69.11.48.25s-.07.09-.09.09h-1l-.14.41h-.35c.05-.15.05-.34.15-.44A2.64,2.64,0,0,1,19,33.53Z" style="fill:#862c38"/><path d="M17.34,34.75c0,.6,0,1.21,0,1.81a3,3,0,0,1-.19.63c-.22-.37-.24-.61-.21-1.57A.93.93,0,0,1,17.34,34.75Z" style="fill:#8a2c3a"/><path d="M193.46,27.63c-.09.07-.17.19-.26.19-1,0-1.95,0-3,0v-.41c.57-.14,1.07.22,1.63.21Z" style="fill:#882e3e"/><path d="M65.74,10.75l.19-.64-.27-.58h-.73c0-.07.1-.19.16-.2.33,0,.67,0,1,0l.28.28v1Z" style="fill:#80303e"/><path d="M157.67,27.42v.3a6,6,0,0,1-2.44.07v-.37c.28.06.56-.05.85.12a1,1,0,0,0,1,0C157.25,27.41,157.48,27.45,157.67,27.42Z" style="fill:#882e3e"/><path d="M190.21,10.14c.08-.07.17-.2.26-.2h3v.41c-.54-.07-1.09-.16-1.64-.2S190.75,10.14,190.21,10.14Z" style="fill:#80303e"/><path d="M236,27.42c-.36.15-.19.32,0,.53-.55.27-.95-.33-1.44-.24l.41-.14V27A3,3,0,0,1,236,27.42Z" style="fill:#922939"/><path d="M143.43,18.07c0,.06,0,.16,0,.19-.21.22-.44.41-.65.63a2.17,2.17,0,0,0-.24.44l.48-.25v.62l-.81-.45v-.54Z" style="fill:#80303e"/><path d="M33.81,49.39l-.53.1c-.47-.24-1.05,0-1.61-.11l-.3.63v-.62c.33-.31.79-.25,1.18-.4A3.88,3.88,0,0,1,33.81,49.39Z" style="fill:#7e2f3a"/><path d="M103.57,17.46l-.41.33.5.18-.61.13-.14-.41H101.8l-.15.44-.14-.34c-.08-.31-.55.1-.58-.33Z" style="fill:#862c38"/><path d="M169.46,17.46c-.05.07-.1.19-.16.19-.33,0-.66,0-1,0v.71l-.44.2v.31c-.34,0-.22-.31-.19-.46a7.32,7.32,0,0,1,.3-1Z" style="fill:#80303e"/><path d="M38.49,33.73v.9a7.12,7.12,0,0,1-.76.31c-.06,0-.17-.13-.26-.19A1.53,1.53,0,0,1,38.49,33.73Z" style="fill:#882e3e"/><path d="M92.79,35.56l-.2.41L92,35.69a2.19,2.19,0,0,1-.24-1.5l.39-.26v1.63Z" style="fill:#882e3e"/><path d="M158.48,28.64c-.15-.39.3-.34.39-.52.19-.38.53-.56.8-.82l-.23-.28h.67A2.89,2.89,0,0,1,158.48,28.64Z" style="fill:#882e3e"/><path d="M163,27.83v.36a2.25,2.25,0,0,0-1.35.44c-.09.08-.31,0-.48,0v-.55a3.07,3.07,0,0,1,1.13,0A1.29,1.29,0,0,0,163,27.83Z" style="fill:#80303e"/><path d="M150.75,25v.21c-.07-.06-.19-.11-.19-.16,0-1.12,0-2.23,0-3.34,0-.06.12-.11.19-.16Z" style="fill:#773b42"/><path d="M230.88,24.58h.37l.06.75.38.13v1.15c-.36-.24-.42-.67-.59-1A4.2,4.2,0,0,1,230.88,24.58Z" style="fill:#7e2f3a"/><path d="M16.93,23.76h.38l0,1v1a.91.91,0,0,1-.41-.86C16.94,24.55,16.93,24.16,16.93,23.76Z" style="fill:#8a2c3a"/><path d="M182.88,14.41v1.18l-.37.07-.07.79-.37-.21a12.35,12.35,0,0,1,.61-1.67A1,1,0,0,1,182.88,14.41Z" style="fill:#7e2f3a"/><path d="M239.63,18.48h-.54l-.11-.33c-.73-.18-.73-.18-.78-.89A2.89,2.89,0,0,1,239.63,18.48Z" style="fill:#80303e"/><path d="M24.87,55.49h.93l.14-.41H27.1c-.07.11-.12.28-.21.3a4,4,0,0,1-1.95.27S24.89,55.55,24.87,55.49Z" style="fill:#7c3340"/><path d="M16.53,50.2v.74l-.41.13v1.78c-.07-.09-.19-.17-.19-.26,0-.56,0-1.13,0-1.7Z" style="fill:#7c3340"/><path d="M219.9,25.8a6.76,6.76,0,0,0,0,.9,3.31,3.31,0,0,0,.2.73l0,0-.16.14.06.07a.75.75,0,0,0,.13-.18h.39c-.21.58-.66.36-1,.41.34-.46.15-1,.21-1.49C219.73,26.16,219.51,25.86,219.9,25.8Z" style="fill:#862c38"/><path d="M232.91,28.24H234l.76.81a1.45,1.45,0,0,1-.66-.12A6.91,6.91,0,0,1,232.91,28.24Z" style="fill:#80303e"/><path d="M8.8,41.66H8.06l-.13-.41H6.16c.08-.06.16-.19.25-.19.57,0,1.13,0,1.71,0Z" style="fill:#80303e"/><path d="M6,41.25l.46.37-.87.07.21.33L5,42.13l.5.21s-.06.13-.09.13h-.7A1.84,1.84,0,0,1,6,41.25Z" style="fill:#862c38"/><path d="M18.36,22.14v.31c-.41.12-.7.34-.62.82l-.6.29V23c.25-.25.5-.52.78-.76A1.2,1.2,0,0,1,18.36,22.14Z" style="fill:#8a2c3a"/><path d="M178.61,10.34c-.22-.06-1-.46-1-.59,0-.36-.72-.14-.43-.63.22.07.45.13.67.21.06,0,.1.13.15.21l0,0-.17.14.06.06a.7.7,0,0,0,.13-.17C178.33,9.71,178.64,9.89,178.61,10.34Z" style="fill:#80303e"/><path d="M217.25,17.26l-.26.4h-.68l-.14.41h-.75a2.38,2.38,0,0,1,1.63-.81Z" style="fill:#8a2c3a"/><path d="M145.06,17.26v.81h-1.43A5.79,5.79,0,0,1,145.06,17.26Z" style="fill:#862c38"/><path d="M233.32,24.58H233a1.11,1.11,0,0,1-.07-.26q0-1.26,0-2.52s.11-.05.17-.07v1.11a6.91,6.91,0,0,0,0,.91A6.2,6.2,0,0,0,233.32,24.58Z" style="fill:#7e2f3a"/><path d="M64.93,9.53v.38c-.51.05-1,0-1.63,0V9.53Z" style="fill:#8f2c3d"/><path d="M17.34,6.27a1.31,1.31,0,0,1,0,.29c-.42.11-.44.61-.77.79a2.35,2.35,0,0,1-.45.14c-.09-.37.22-.53.43-.72S16.92,6.18,17.34,6.27Z" style="fill:#80303e"/><path d="M230.27,18.88l.25-.95.36-.12v-.35c.33,0,.21.29.2.45A1,1,0,0,1,230.27,18.88Z" style="fill:#80303e"/><path d="M207.29,17.26h-3c0-.07.1-.2.16-.2h2.73C207.18,17.06,207.24,17.19,207.29,17.26Z" style="fill:#6a3e4c"/><path d="M63.3,13.39V10.75h.41a1.3,1.3,0,0,0-.22.71c0,.55,0,1.12,0,1.68C63.49,13.22,63.37,13.31,63.3,13.39Z" style="fill:#773b42"/><path d="M202,18.48c0,.69-.58,1.1-.92,1.62,0,0-.2,0-.3,0A5,5,0,0,1,202,18.48Z" style="fill:#882e3e"/><path d="M112.32,28l.12-.31.11.82.64.51h.35c-.25.45-.65,0-.91.23A1.67,1.67,0,0,1,112.32,28Z" style="fill:#77313e"/><path d="M95.84,17.46c0,.07-.1.19-.16.19-.84,0-1.68,0-2.53,0-.05,0-.1-.12-.16-.19Z" style="fill:#7c3340"/><path d="M80.39,28.64v-.37H78.76v-.44l.75.2c.18,0,.61,0,1,0,.09,0,.17.13.25.2l-.2.25C80.53,28.55,80.45,28.59,80.39,28.64Z" style="fill:#7c3340"/><path d="M33.2,43.29c.28-.06.33.17.48.31s.3.4.48.47.39.2.47.44A1.62,1.62,0,0,1,33.2,43.29Z" style="fill:#80303e"/><path d="M4.73,42.47v2.44c-.27,0-.18-.21-.2-.35s-.08-.55-.13-.85.07-.64.14-1C4.55,42.64,4.66,42.56,4.73,42.47Z" style="fill:#6a3e4c"/><path d="M200.37,25h.36l.08.75.37.13-.12.17.13.58v.2A3.77,3.77,0,0,1,200.37,25Z" style="fill:#882e3e"/><path d="M43,40.85c.05.45-.43.51-.59.81A1.75,1.75,0,0,1,42,42l-.27-.16a.53.53,0,0,1,.37-.61Z" style="fill:#80303e"/><path d="M237.8,17.26H235c.05-.07.1-.2.16-.2h2.53C237.69,17.06,237.74,17.19,237.8,17.26Z" style="fill:#6a3e4c"/><path d="M1.68,38.81h.48l.54.67v.35a2,2,0,0,1-.94-.65A.84.84,0,0,1,1.68,38.81Z" style="fill:#80303e"/><path d="M241.86,18.48v.71l.41.19v.32L241.21,19C241.33,18.61,241.52,18.43,241.86,18.48Z" style="fill:#80303e"/><path d="M14.49,23.56v-1h.82C15.12,23,15,23.37,14.49,23.56Z" style="fill:#80303e"/><path d="M43.37,45.73l.34-.47.43.26.66-.26v.47h-.61v.4H44v-.4Z" style="fill:#a62340"/><path d="M20.19,10.75V10L21,9.53A1.46,1.46,0,0,1,20.19,10.75Z" style="fill:#8a2c3a"/><path d="M47,27.42c.11.46-.49.46-.53.82-.37-.1-.24.63-.69.4,0-.55.45-.75.81-1A2.63,2.63,0,0,1,47,27.42Z" style="fill:#7c3340"/><path d="M235,29.05h2.64c-.05.07-.1.19-.16.2-.77,0-1.55,0-2.32,0C235.05,29.24,235,29.12,235,29.05Z" style="fill:#6a3a40"/><path d="M221.53,18.88c-.45.23-.33-.5-.69-.4,0-.36-.64-.36-.53-.82.55,0,.75.45,1,.81A2.63,2.63,0,0,1,221.53,18.88Z" style="fill:#7e2f3a"/><path d="M83,28.24h.53l.13.38.76.05v.38a3,3,0,0,1-1.62-.81Z" style="fill:#882e3e"/><path d="M98.69,25.59v.56h-.85l.24-.25c-.36-.24-.15-.61-.2-.92.36.25.2.75.49,1Z" style="fill:#753237"/><path d="M192.65,9.12h-2.44c0-.07.1-.19.16-.19.7,0,1.41,0,2.12,0C192.54,8.93,192.59,9.05,192.65,9.12Z" style="fill:#773b42"/><path d="M83,28.24h-.2L82,27.42c.26,0,.53-.06.73.21a1.61,1.61,0,0,0,.47.29Z" style="fill:#99283a"/><path d="M203.22,17.66c.07.63-.5.61-.84.81-.09.05-.25,0-.38,0A3.1,3.1,0,0,1,203.22,17.66Z" style="fill:#862c38"/><path d="M196.71,12.78l.36-.21.1.6.36-.19v1A3.75,3.75,0,0,1,196.71,12.78Z" style="fill:#8a2c3a"/><path d="M106.21,18.07l-.24.81h-.77C105.46,18.52,105.66,18.07,106.21,18.07Z" style="fill:#8a2c3a"/><path d="M80.79,21.32V23h-.4a5.35,5.35,0,0,1,.31-1.63Z" style="fill:#99283a"/><path d="M36.46,39.63H34.9l-.14.39-.34-.19.28-.41c.5,0,1,0,1.5,0C36.29,39.44,36.37,39.56,36.46,39.63Z" style="fill:#77313e"/><path d="M217.25,17.26h-.2c0-.07.11-.2.16-.2h2.12c.06,0,.11.13.16.2Z" style="fill:#6a3e4c"/><path d="M44.59,36V38.2c-.06,0-.16,0-.16-.07,0-.7,0-1.4,0-2.09C44.43,36,44.53,36,44.59,36Z" style="fill:#773b42"/><path d="M202,27.83h.54l.12.36.56.09v.36A1.44,1.44,0,0,1,202,27.83Z" style="fill:#882e3e"/><path d="M46.63.17H44.39c0-.06,0-.16.07-.16h2.1S46.6.11,46.63.17Z" style="fill:#773b42"/><path d="M138.14,15.63h.72l.19-.41h.31a.45.45,0,0,1-.2.51l-.69.34Z" style="fill:#7c3340"/><path d="M43.37,45.73H44v.4a1.71,1.71,0,0,1-1.42-.4Z" style="fill:#80303e"/><path d="M14.49,13V10.75c.06,0,.17,0,.17.07,0,.7,0,1.4,0,2.09C14.66,12.94,14.55,13,14.49,13Z" style="fill:#6a3e4c"/><path d="M49.47,38.2V36c.06,0,.17,0,.17.07,0,.69,0,1.39,0,2.09C49.64,38.16,49.53,38.18,49.47,38.2Z" style="fill:#773b42"/><path d="M91,27v-.71c.37,0,.35-.62.81-.51A3.94,3.94,0,0,1,91,27Z" style="fill:#7e2f3a"/><path d="M110.48,17.26h-2s0-.1,0-.1a3.88,3.88,0,0,1,2,0S110.48,17.22,110.48,17.26Z" style="fill:#6a3e4c"/><path d="M222.14,27.83a2.08,2.08,0,0,1-.5,0c-.11,0-.19-.17-.28-.26l.27-.54h.3A1.08,1.08,0,0,0,222.14,27.83Z" style="fill:#862c38"/><path d="M45.81,25.39h2v.1a4.14,4.14,0,0,1-2,0Z" style="fill:#773b42"/><path d="M23,16c.17,0,.4-.1.43.23,0,.09.21.16.39.28v.5C23.48,16.79,23,16.59,23,16Z" style="fill:#7e2f3a"/><path d="M27.92,16V14H28a3.88,3.88,0,0,1,0,2Z" style="fill:#77313e"/><path d="M34.63,44.51h2s0,.09,0,.09a3.88,3.88,0,0,1-2,0S34.63,44.54,34.63,44.51Z" style="fill:#6a3a40"/><path d="M33.41,6.27h-2V6.18a3.92,3.92,0,0,1,2,0Z" style="fill:#6a3a40"/><path d="M31.78,19.29h2s0,.09,0,.1a4.1,4.1,0,0,1-2,0S31.78,19.32,31.78,19.29Z" style="fill:#773b42"/><path d="M226.61,29.05h2s0,.1,0,.1a4.1,4.1,0,0,1-2,0S226.61,29.08,226.61,29.05Z" style="fill:#773b42"/><path d="M82.62,18.88h-.2l.81-.81v.81Z" style="fill:#7e2f3a"/><path d="M200.37,22.14v2h-.09a3.88,3.88,0,0,1,0-2S200.34,22.14,200.37,22.14Z" style="fill:#773b42"/><path d="M94.62,22.14H95A5.49,5.49,0,0,1,95,23.36,1.63,1.63,0,0,1,94.62,22.14Z" style="fill:#7e2f3a"/><path d="M95.44,34.54h.2c-.07.42-.15.83-.61,1v-.7Z" style="fill:#8a2c3a"/><path d="M187.77,28.64H189v.41A1.56,1.56,0,0,1,187.77,28.64Z" style="fill:#7e2f3a"/><path d="M27.92,8.51V6.68s.16.05.16.07c0,.56,0,1.13,0,1.69C28.08,8.46,28,8.49,27.92,8.51Z" style="fill:#6a3a40"/><path d="M31.37,11.15H33.2c0,.06,0,.17-.07.17H31.44S31.4,11.21,31.37,11.15Z" style="fill:#773b42"/><path d="M46.22,42.07h-.31l-.18-.41-.27.24-.05-.65a.56.56,0,0,1,.6.33A3.61,3.61,0,0,1,46.22,42.07Z" style="fill:#862c38"/><path d="M186.75,24.78l-.33-.19-.25.28,0-1.11C186.37,24.08,186.75,24.32,186.75,24.78Z" style="fill:#7e2f3a"/><path d="M157.06,17.26h-1.83c0-.06,0-.17.07-.17.56,0,1.12,0,1.69,0C157,17.09,157,17.2,157.06,17.26Z" style="fill:#6a3e4c"/><path d="M169.26,28.24h-1.83c.08-.07.16-.19.25-.2.53,0,1,0,1.58,0Z" style="fill:#80303e"/><path d="M92.18,24.17V22.34c.06,0,.17.05.17.07,0,.56,0,1.13,0,1.69C92.35,24.12,92.24,24.15,92.18,24.17Z" style="fill:#773b42"/><path d="M80.39,28.64c.06-.05.14-.09.2-.15l.2-.25c.33,0,.23.31.19.44a.48.48,0,0,1-.59.37Z" style="fill:#882e3e"/><path d="M11.24,14.41h1.83c0,.06-.05.16-.07.16H11.31S11.26,14.47,11.24,14.41Z" style="fill:#6a3a40"/><path d="M91.77,25.59V24.37h.41A1.56,1.56,0,0,1,91.77,25.59Z" style="fill:#882e3e"/><path d="M150.14,17.26h-1.83c0-.06.05-.17.07-.17.57,0,1.13,0,1.69,0C150.1,17.09,150.12,17.2,150.14,17.26Z" style="fill:#6a3e4c"/><path d="M21,52.85V51c.06,0,.17.05.17.08q0,.84,0,1.68S21.06,52.82,21,52.85Z" style="fill:#6a3e4c"/><path d="M199.76,24.37c-.07.07-.15.18-.24.2a3.6,3.6,0,0,1-.57,0v-.31l.54-.27Z" style="fill:#8f2c3d"/><path d="M47.85,20.51H46c0-.06,0-.17.07-.17.56,0,1.12,0,1.69,0C47.8,20.34,47.82,20.45,47.85,20.51Z" style="fill:#6a3e4c"/><path d="M223.56,28.85v-.52l-.41-.19v-.31h.58C223.69,28.18,224,28.54,223.56,28.85Z" style="fill:#773b42"/><path d="M41.54,26.2H39.91c.06-.06.11-.19.16-.19.44,0,.88,0,1.31,0C41.44,26,41.49,26.14,41.54,26.2Z" style="fill:#6a3a40"/><path d="M87.3,17.26H85.67c.06-.07.11-.2.16-.2.44,0,.88,0,1.31,0C87.2,17.06,87.25,17.19,87.3,17.26Z" style="fill:#6a3e4c"/><path d="M41.34,42.68c.06.37-.15.79.17,1.13l-.17.29A1.31,1.31,0,0,1,41.34,42.68Z" style="fill:#753237"/><path d="M110.08,29.05v-.38l1,0A1,1,0,0,1,110.08,29.05Z" style="fill:#7e2f3a"/><path d="M132.45,9.12v.37l-.81,0V9.12Z" style="fill:#9f253a"/><path d="M41.75,44.91c.09,0,.26,0,.27,0a1,1,0,0,0,.53.53s0,.18,0,.28a4.1,4.1,0,0,1-.48-.21A.55.55,0,0,1,41.75,44.91Z" style="fill:#882e3e"/><path d="M11.85,24.17h1.63c-.06.07-.11.19-.16.19-.44,0-.88,0-1.31,0C12,24.36,11.9,24.24,11.85,24.17Z" style="fill:#773b42"/><path d="M128.79,29.05H130v.41a1.2,1.2,0,0,0-.88-.21C129,29.26,128.79,29.31,128.79,29.05Z" style="fill:#6a3a40"/><path d="M127.36,28.64h1v.41A3,3,0,0,1,127.36,28.64Z" style="fill:#773b42"/><path d="M201.19,26.81v-.2l.38-.22,0,1Z" style="fill:#8f2c3d"/><path d="M27.92,39.22V37.8A1.31,1.31,0,0,1,27.92,39.22Z" style="fill:#77313e"/><path d="M98.28,28.85v-1h.41A2.9,2.9,0,0,1,98.28,28.85Z" style="fill:#882e3e"/><path d="M110.89,9.73l-.41.34v.68c-.06-.06-.18-.1-.19-.16,0-.26,0-.53,0-.86Z" style="fill:#773b42"/><path d="M96.25,33.32v-1l.41.21A1,1,0,0,1,96.25,33.32Z" style="fill:#882e3e"/><path d="M44.19,46.13v-.4h1s0,.09,0,.09Z" style="fill:#7c3340"/><path d="M40.52,33.53H39.1A1.27,1.27,0,0,1,40.52,33.53Z" style="fill:#6a3e4c"/><path d="M41.34,44.1h.41v.81C41.3,44.8,41.32,44.45,41.34,44.1Z" style="fill:#8a2c3a"/><path d="M45.41,41.25c-.38,0-.86.18-1-.4A1,1,0,0,1,45.41,41.25Z" style="fill:#7e2f3a"/><path d="M199.15,25.8V25h.61Z" style="fill:#8f2c3d"/><path d="M113.74,29.05v-.38l1,0a.25.25,0,0,1,0,.1Z" style="fill:#753237"/><path d="M43,2V3.22A1,1,0,0,1,43,2Z" style="fill:#6a3a40"/><path d="M95.84,34.34v-.81h.41A1,1,0,0,1,95.84,34.34Z" style="fill:#7c3340"/><path d="M208.92,26.41V27h-.61Z" style="fill:#753237"/><path d="M158.48,27a.5.5,0,0,1-.28.57c-.14.08-.32.09-.33-.17Z" style="fill:#882e3e"/><path d="M121.47,22.14h.38l0,1c-.06-.08-.19-.16-.19-.24A1.23,1.23,0,0,0,121.47,22.14Z" style="fill:#773b42"/><path d="M160.31,21.53c-.39-.1-.13-.41-.2-.61v-.61c.07.08.19.16.19.24C160.32,20.88,160.31,21.2,160.31,21.53Z" style="fill:#773b42"/><path d="M209.73,21.53v-.61h.41v.61Z" style="fill:#882e3e"/><path d="M198.75,24.78v.61h-.61Z" style="fill:#8f2c3d"/><path d="M27.92,22.54V21.32A1,1,0,0,1,27.92,22.54Z" style="fill:#77313e"/><path d="M.66,28.64v.82H.26A1,1,0,0,1,.66,28.64Z" style="fill:#7c3340"/><path d="M15.71,17.66h.41v.82A1,1,0,0,1,15.71,17.66Z" style="fill:#882e3e"/><path d="M19.37,11.15v-.4h.82A1,1,0,0,1,19.37,11.15Z" style="fill:#8a2c3a"/><path d="M244.91,17.66l-.32-.4h-.49c.16-.46.52,0,.81-.34Z" style="fill:#6a3a40"/><path d="M209.73,25.59v.61h-.61Z" style="fill:#77313e"/><path d="M244.71,27.83c0-.07.1-.19.16-.19.34,0,.23-.24.25-.42l.4.61h-.81Z" style="fill:#753237"/><path d="M163,14h1.22A1,1,0,0,1,163,14Z" style="fill:#6a3e4c"/><path d="M38.29,51h1.22A1,1,0,0,1,38.29,51Z" style="fill:#77313e"/><path d="M129.6,9.32c-.08.07-.16.19-.24.2-.26,0-.52,0-.78,0,.09-.07.16-.19.25-.2C129.08,9.31,129.34,9.32,129.6,9.32Z" style="fill:#753237"/><path d="M13.68,24.17v-.41h.61A.5.5,0,0,1,13.68,24.17Z" style="fill:#7c3340"/><path d="M125.13,23.76h-.41V23c.07.05.17.08.2.14C125,23.31,125.06,23.54,125.13,23.76Z" style="fill:#773b42"/><path d="M21,9.12v-1A.71.71,0,0,1,21,9.12Z" style="fill:#6a3e4c"/><path d="M84.25,17.66c-.11.45-.47.43-.81.41A.92.92,0,0,1,84.25,17.66Z" style="fill:#7e2f3a"/><path d="M129.19,27.83h-.81v-.41c.23.07.45.13.67.21C129.12,27.66,129.15,27.76,129.19,27.83Z" style="fill:#6a3a40"/><path d="M12.66,46.13h-1A.7.7,0,0,1,12.66,46.13Z" style="fill:#6a3a40"/><path d="M201.6,27.42h.87l-.47.41Z" style="fill:#882e3e"/><path d="M37.27,35.56v1A.71.71,0,0,1,37.27,35.56Z" style="fill:#6a3e4c"/><path d="M93.81,20.1h.4v.82c-.06-.05-.17-.08-.19-.15A6.56,6.56,0,0,1,93.81,20.1Z" style="fill:#7c3340"/><path d="M27.92,37.59l-.37.21,0-.82Z" style="fill:#77313e"/><path d="M44.39,40.85h-1A.69.69,0,0,1,44.39,40.85Z" style="fill:#7e2f3a"/><path d="M131,28.24c-.26,0-.52,0-.78,0-.08,0-.16-.13-.24-.2.26,0,.52,0,.77,0C130.87,28.05,130.94,28.17,131,28.24Z" style="fill:#773b42"/><path d="M106.82,17.66v.41h-.61A.51.51,0,0,1,106.82,17.66Z" style="fill:#8a2c3a"/><path d="M214.2,17.26h-.81A.5.5,0,0,1,214.2,17.26Z" style="fill:#6a3a40"/><path d="M31,18.88h.61v.41Z" style="fill:#7e2f3a"/><path d="M209.93,20.51c-.06-.08-.18-.15-.19-.24a3.62,3.62,0,0,1,0-.57c.07.08.18.15.19.24A3.6,3.6,0,0,1,209.93,20.51Z" style="fill:#6a3e4c"/><path d="M97.06,18.27v-.81A.5.5,0,0,1,97.06,18.27Z" style="fill:#6a3a40"/><path d="M210.14,26.41v-.82A.52.52,0,0,1,210.14,26.41Z" style="fill:#77313e"/><path d="M96.66,32.51V31.9h.4Z" style="fill:#882e3e"/><path d="M196.92,27.83l-.2-.36.6,0Z" style="fill:#862c38"/><path d="M202.41,22.75l-.35.19c-.18-.36.11-.47.35-.6Z" style="fill:#8a2c3a"/><path d="M121.87,23.15h.53l-.32.41C121.77,23.54,121.9,23.31,121.87,23.15Z" style="fill:#8a2c3a"/><path d="M27.51,54.88v-.61h.41Z" style="fill:#6a3a40"/><path d="M98.69,27.83l-.2-.35.4-.06C98.86,27.58,99,27.81,98.69,27.83Z" style="fill:#882e3e"/><path d="M78.56,27.42h.2v.41h-.41Z" style="fill:#8f2c3d"/><path d="M235,27h-.41v-.41Z" style="fill:#753237"/><path d="M34.42,39.83c-.09.39-.41.13-.61.2C33.91,39.64,34.22,39.91,34.42,39.83Z" style="fill:#77313e"/><path d="M216.24,18.68c.09-.39.41-.13.61-.2C216.75,18.87,216.44,18.6,216.24,18.68Z" style="fill:#6a3a40"/><path d="M43.37,4.24h.41v.41Z" style="fill:#6a3e4c"/><path d="M198.75,26.2v-.4h.4Z" style="fill:#8f2c3d"/><path d="M43.78.58V1h-.41Z" style="fill:#6a3e4c"/><path d="M60.46,27.63v.57l-.14,0-.07-.39Z" style="fill:#80303e"/><path d="M198.14,25.39v.41h-.41Z" style="fill:#8f2c3d"/><path d="M245.12,21.12c.07-.2-.19-.52.2-.61C245.24,20.71,245.51,21,245.12,21.12Z" style="fill:#6a3a40"/><path d="M175.56,10.75H176v.4Z" style="fill:#80303e"/><path d="M100.11,22.14c0,.15.1.39-.2.4C99.94,22.39,99.81,22.15,100.11,22.14Z" style="fill:#753237"/><path d="M100.32,21.73c0,.15.1.39-.21.41C100.14,22,100,21.75,100.32,21.73Z" style="fill:#753237"/><path d="M209.93,25.59h-.2l.14-.17Z" style="fill:#77313e"/><path d="M225,27.83l.21.2Z" style="fill:#922939"/><path d="M105.4,22.14a6.74,6.74,0,0,1,0,.9,1.27,1.27,0,0,0,.21.72h-.38c0-.53,0-1.08,0-1.62Z" style="fill:#7e2f3a"/><path d="M105.4,22.14h-.2v-.82h.4A1.08,1.08,0,0,1,105.4,22.14Z" style="fill:#922939"/><path d="M111.7,27c.07-.23.13-.46.21-.67s.13-.1.2-.15V27Z" style="fill:#6a3e4c"/><path d="M208.31,21.32h-1.83v-.4c.3,0,.65-.14.9.18.25-.25.56-.2.93-.14Z" style="fill:#8a2c3a"/><path d="M207.49,20.51a1.06,1.06,0,0,0-.2-.81h.37C207.67,20,207.86,20.28,207.49,20.51Z" style="fill:#6a3a40"/><path d="M83.64,19.9a3.61,3.61,0,0,0-.65,2s-.11.05-.16.07l-.38-.31V20.1l.42.26.48-.63Z" style="fill:#882e3e"/><path d="M89.33,20.51c-.28-.37-.71-.66-.61-1.22l.38.47.35-.45h.66v.79h-.78Z" style="fill:#8a2c3a"/><path d="M83.23,26l1.43,1.83h-.45l-1-1Z" style="fill:#7e2f3a"/><path d="M88.52,27.42A6.44,6.44,0,0,1,89.33,26v1.42Z" style="fill:#882e3e"/><path d="M82.83,24.37h.09c.11.55.21,1.09.31,1.63h-.38C82.81,25.46,82.84,24.92,82.83,24.37Z" style="fill:#77313e"/><path d="M86.28,28.44l.37-.07.45-.13.2.35H86Z" style="fill:#922939"/><path d="M89.74,21.53s-.09,0-.09,0c-.11-.33-.21-.67-.32-1h.39Z" style="fill:#753237"/><path d="M87.5,28.24a.51.51,0,0,1,.61-.41v.57Z" style="fill:#882e3e"/><path d="M88.11,18.88l-.61-.4h.81Z" style="fill:#8a2c3a"/><path d="M88.72,19.29a.51.51,0,0,1-.61-.41A.5.5,0,0,1,88.72,19.29Z" style="fill:#8a2c3a"/><path d="M88.11,27.83l.41-.41v.41Z" style="fill:#882e3e"/><ellipse cx="90.45" cy="20" rx="0.14" ry="0.05" style="fill:#922939"/><path d="M234.13,18.88c-.27.56-.55,1.12-.87,1.76a4.76,4.76,0,0,0,.58.07h2.42a6.89,6.89,0,0,0,.91,0,6.2,6.2,0,0,0,.83-.19v.31s-.05.06-.07.06h-4.74c-.38-.24-.31-.59-.21-1l.29.24.08-.79.29-.07.18-.39Z" style="fill:#7e2f3a"/><path d="M237.39,18.48c-.33.09-.47-.18-.72-.41h-1.32v-.39c.58,0,1.17,0,1.78,0Z" style="fill:#8a2c3a"/><path d="M238,20.51c.14-.44-.2-.8-.2-1.22h.36a3.7,3.7,0,0,1,0,1.15S238.06,20.49,238,20.51Z" style="fill:#7e2f3a"/><path d="M235.35,18.07a1,1,0,0,1-.81.41l-.21-.38Z" style="fill:#8a2c3a"/><path d="M244.71,27.83h.61a.86.86,0,0,1-.79.41h-1.72l.8-.59.2.17.22-.22.28.47Z" style="fill:#ac2039"/><path d="M152.79,20.51v.41l-.74.2a.84.84,0,0,1-.07-.26,2.44,2.44,0,0,1,0-.35Z" style="fill:#a6233b"/><path d="M152.79,20.92l.16.13-.16.07Z" style="fill:#a62340"/><path d="M170.28,27.42H170l-.06-.07a.19.19,0,0,1,0-.08V20.51h.36a3.6,3.6,0,0,1,0,.36c0,1.61,0,3.22,0,4.83,0,.3,0,.6,0,.9a7.54,7.54,0,0,0,.2.82Z" style="fill:#ac2039"/><path d="M171.5,20.1v.33l-.41.14v6.24c-.28,0-.2-.21-.2-.36,0-1.45,0-2.9,0-4.35,0-.64-.14-1.28-.22-2Z" style="fill:#ac2039"/><path d="M170.68,19.29h.82v.41h-.82Z" style="fill:#ac2039"/><path d="M169.87,19.29v-.41h.41v.41Z" style="fill:#99283a"/><path d="M169.87,19.29h.41v.41h-.41Z" style="fill:#ac2039"/><path d="M170.28,27.42h.2l.24.3-.08.08-.36-.17Z" style="fill:#99283a"/><path d="M171.9,13.39l-.2.2Z" style="fill:#a62340"/><path d="M40.36,26.84c-.3.58-.33,1.47-.18,3.39l.37.12c-.46.35-.81,0-1.22-.13v-.7l.36-.12V27.89l-.36-.12v-.59l.55-.58Z" style="fill:#ac2039"/><path d="M40.32,26.71a.7.7,0,0,1,.16-.1h1.71l-.18.25c.24.41.1.86.16,1.34h-.82V27C41,27,40.54,27.14,40.32,26.71Z" style="fill:#ac2039"/><path d="M42.14,28.88v1.76h-.52c-.42-.49-.25-1.12-.29-1.76Z" style="fill:#ac2039"/><path d="M40.37,31l.5-.18C40.92,31,40.92,31,40.37,31Z" style="fill:#ac2039"/><path d="M135.43,10l-.89.44-.06-.44Z" style="fill:#a2253a"/><path d="M157.67,20.71v-1H158l.05-.95.54-.25.08.32.55.1V20l.39.18-.54.53h.59l-.31.65-.66-.19-1.06.2v-.66Z" style="fill:#ac2039"/><path d="M95.44,34.34v.2l-.21-.2Z" style="fill:#8a2c3a"/><ellipse cx="155.84" cy="20.81" rx="2.59" ry="0.14" style="fill:#753237"/><ellipse cx="27.41" cy="16.34" rx="0.14" ry="0.05" style="fill:#a32339"/><path d="M176.41,11.22l0-.46.48,0Z" style="fill:#a6233b"/><path d="M122.26,24.15l.14-.16.06.06-.16.14Z" style="fill:#a2253a"/><path d="M220.12,27.44l-.14.17-.06-.07.16-.14Z" style="fill:#a5233a"/><path d="M178,9.55l-.15.16-.06-.06.17-.14Z" style="fill:#a6233b"/></g></g></svg>